<?xml version="1.0" encoding="utf-8"?>
<!-- Generator: Adobe Illustrator 21.0.0, SVG Export Plug-In . SVG Version: 6.00 Build 0)  -->
<svg version="1.1" id="Layer_1" xmlns="http://www.w3.org/2000/svg" xmlns:xlink="http://www.w3.org/1999/xlink" x="0px" y="0px"
	 viewBox="0 0 110 110" style="enable-background:new 0 0 110 110;" xml:space="preserve">
<style type="text/css">
	.st0{clip-path:url(#SVGID_2_);fill:url(#SVGID_3_);}
	.st1{clip-path:url(#SVGID_5_);fill:url(#SVGID_6_);}
	.st2{clip-path:url(#SVGID_8_);fill:url(#SVGID_9_);}
	.st3{clip-path:url(#SVGID_11_);fill:url(#SVGID_12_);}
	.st4{clip-path:url(#SVGID_14_);fill:url(#SVGID_15_);}
	.st5{clip-path:url(#SVGID_17_);fill:url(#SVGID_18_);}
	.st6{clip-path:url(#SVGID_20_);fill:url(#SVGID_21_);}
	.st7{clip-path:url(#SVGID_23_);fill:url(#SVGID_24_);}
	.st8{clip-path:url(#SVGID_26_);fill:url(#SVGID_27_);}
</style>
<g>
	<defs>
		<path id="SVGID_1_" d="M31.5,34h-16c-1.4,0-2.5-1.1-2.5-2.5v-16c0-1.4,1.1-2.5,2.5-2.5h16c1.4,0,2.5,1.1,2.5,2.5v16
			C34,32.9,32.9,34,31.5,34z M18,29h11V18H18V29z"/>
	</defs>
	<clipPath id="SVGID_2_">
		<use xlink:href="#SVGID_1_"  style="overflow:visible;"/>
	</clipPath>
	<linearGradient id="SVGID_3_" gradientUnits="userSpaceOnUse" x1="0" y1="110" x2="110" y2="-5.684342e-13">
		<stop  offset="0" style="stop-color:#1A9690"/>
		<stop  offset="1" style="stop-color:#247CB5"/>
	</linearGradient>
	<rect class="st0" width="110" height="110"/>
</g>
<g>
	<defs>
		<path id="SVGID_4_" d="M63.5,34h-16c-1.4,0-2.5-1.1-2.5-2.5v-16c0-1.4,1.1-2.5,2.5-2.5h16c1.4,0,2.5,1.1,2.5,2.5v16
			C66,32.9,64.9,34,63.5,34z M50,29h11V18H50V29z"/>
	</defs>
	<clipPath id="SVGID_5_">
		<use xlink:href="#SVGID_4_"  style="overflow:visible;"/>
	</clipPath>
	<linearGradient id="SVGID_6_" gradientUnits="userSpaceOnUse" x1="0" y1="110" x2="110" y2="-5.684342e-13">
		<stop  offset="0" style="stop-color:#1A9690"/>
		<stop  offset="1" style="stop-color:#247CB5"/>
	</linearGradient>
	<rect class="st1" width="110" height="110"/>
</g>
<g>
	<defs>
		<path id="SVGID_7_" d="M95.5,34h-16c-1.4,0-2.5-1.1-2.5-2.5v-16c0-1.4,1.1-2.5,2.5-2.5h16c1.4,0,2.5,1.1,2.5,2.5v16
			C98,32.9,96.9,34,95.5,34z M82,29h11V18H82V29z"/>
	</defs>
	<clipPath id="SVGID_8_">
		<use xlink:href="#SVGID_7_"  style="overflow:visible;"/>
	</clipPath>
	<linearGradient id="SVGID_9_" gradientUnits="userSpaceOnUse" x1="0" y1="110" x2="110" y2="-5.684342e-13">
		<stop  offset="0" style="stop-color:#1A9690"/>
		<stop  offset="1" style="stop-color:#247CB5"/>
	</linearGradient>
	<rect class="st2" width="110" height="110"/>
</g>
<g>
	<defs>
		<path id="SVGID_10_" d="M31.5,66h-16c-1.4,0-2.5-1.1-2.5-2.5v-16c0-1.4,1.1-2.5,2.5-2.5h16c1.4,0,2.5,1.1,2.5,2.5v16
			C34,64.9,32.9,66,31.5,66z M18,61h11V50H18V61z"/>
	</defs>
	<clipPath id="SVGID_11_">
		<use xlink:href="#SVGID_10_"  style="overflow:visible;"/>
	</clipPath>
	<linearGradient id="SVGID_12_" gradientUnits="userSpaceOnUse" x1="0" y1="110" x2="110" y2="-5.684342e-13">
		<stop  offset="0" style="stop-color:#1A9690"/>
		<stop  offset="1" style="stop-color:#247CB5"/>
	</linearGradient>
	<rect class="st3" width="110" height="110"/>
</g>
<g>
	<defs>
		<path id="SVGID_13_" d="M63.5,66h-16c-1.4,0-2.5-1.1-2.5-2.5v-16c0-1.4,1.1-2.5,2.5-2.5h16c1.4,0,2.5,1.1,2.5,2.5v16
			C66,64.9,64.9,66,63.5,66z M50,61h11V50H50V61z"/>
	</defs>
	<clipPath id="SVGID_14_">
		<use xlink:href="#SVGID_13_"  style="overflow:visible;"/>
	</clipPath>
	<linearGradient id="SVGID_15_" gradientUnits="userSpaceOnUse" x1="0" y1="110" x2="110" y2="-5.684342e-13">
		<stop  offset="0" style="stop-color:#1A9690"/>
		<stop  offset="1" style="stop-color:#247CB5"/>
	</linearGradient>
	<rect class="st4" width="110" height="110"/>
</g>
<g>
	<defs>
		<path id="SVGID_16_" d="M95.5,66h-16c-1.4,0-2.5-1.1-2.5-2.5v-16c0-1.4,1.1-2.5,2.5-2.5h16c1.4,0,2.5,1.1,2.5,2.5v16
			C98,64.9,96.9,66,95.5,66z M82,61h11V50H82V61z"/>
	</defs>
	<clipPath id="SVGID_17_">
		<use xlink:href="#SVGID_16_"  style="overflow:visible;"/>
	</clipPath>
	<linearGradient id="SVGID_18_" gradientUnits="userSpaceOnUse" x1="0" y1="110" x2="110" y2="-5.684342e-13">
		<stop  offset="0" style="stop-color:#1A9690"/>
		<stop  offset="1" style="stop-color:#247CB5"/>
	</linearGradient>
	<rect class="st5" width="110" height="110"/>
</g>
<g>
	<defs>
		<path id="SVGID_19_" d="M31.5,98h-16c-1.4,0-2.5-1.1-2.5-2.5v-16c0-1.4,1.1-2.5,2.5-2.5h16c1.4,0,2.5,1.1,2.5,2.5v16
			C34,96.9,32.9,98,31.5,98z M18,93h11V82H18V93z"/>
	</defs>
	<clipPath id="SVGID_20_">
		<use xlink:href="#SVGID_19_"  style="overflow:visible;"/>
	</clipPath>
	<linearGradient id="SVGID_21_" gradientUnits="userSpaceOnUse" x1="0" y1="110" x2="110" y2="-5.684342e-13">
		<stop  offset="0" style="stop-color:#1A9690"/>
		<stop  offset="1" style="stop-color:#247CB5"/>
	</linearGradient>
	<rect class="st6" width="110" height="110"/>
</g>
<g>
	<defs>
		<path id="SVGID_22_" d="M63.5,98h-16c-1.4,0-2.5-1.1-2.5-2.5v-16c0-1.4,1.1-2.5,2.5-2.5h16c1.4,0,2.5,1.1,2.5,2.5v16
			C66,96.9,64.9,98,63.5,98z M50,93h11V82H50V93z"/>
	</defs>
	<clipPath id="SVGID_23_">
		<use xlink:href="#SVGID_22_"  style="overflow:visible;"/>
	</clipPath>
	<linearGradient id="SVGID_24_" gradientUnits="userSpaceOnUse" x1="0" y1="110" x2="110" y2="-5.684342e-13">
		<stop  offset="0" style="stop-color:#1A9690"/>
		<stop  offset="1" style="stop-color:#247CB5"/>
	</linearGradient>
	<rect class="st7" width="110" height="110"/>
</g>
<g>
	<defs>
		<path id="SVGID_25_" d="M95.5,98h-16c-1.4,0-2.5-1.1-2.5-2.5v-16c0-1.4,1.1-2.5,2.5-2.5h16c1.4,0,2.5,1.1,2.5,2.5v16
			C98,96.9,96.9,98,95.5,98z M82,93h11V82H82V93z"/>
	</defs>
	<clipPath id="SVGID_26_">
		<use xlink:href="#SVGID_25_"  style="overflow:visible;"/>
	</clipPath>
	<linearGradient id="SVGID_27_" gradientUnits="userSpaceOnUse" x1="0" y1="110" x2="110" y2="-5.684342e-13">
		<stop  offset="0" style="stop-color:#1A9690"/>
		<stop  offset="1" style="stop-color:#247CB5"/>
	</linearGradient>
	<rect class="st8" width="110" height="110"/>
</g>
</svg>
