<?xml version="1.0" encoding="utf-8"?>
<!-- Generator: Adobe Illustrator 21.0.0, SVG Export Plug-In . SVG Version: 6.00 Build 0)  -->
<svg version="1.1" id="Layer_1" xmlns="http://www.w3.org/2000/svg" xmlns:xlink="http://www.w3.org/1999/xlink" x="0px" y="0px"
	 viewBox="0 0 110 110" style="enable-background:new 0 0 110 110;" xml:space="preserve">
<style type="text/css">
	.st0{clip-path:url(#SVGID_2_);fill:url(#SVGID_3_);}
	.st1{clip-path:url(#SVGID_5_);fill:url(#SVGID_6_);}
	.st2{clip-path:url(#SVGID_8_);fill:url(#SVGID_9_);}
	.st3{clip-path:url(#SVGID_11_);fill:url(#SVGID_12_);}
</style>
<g>
	<defs>
		<path id="SVGID_1_" d="M40,55.2h53.9c1.3,0,2.4-1.1,2.4-2.4c0-1.3-1.1-2.4-2.4-2.4H40c-1.3,0-2.4,1.1-2.4,2.4
			C37.6,54.2,38.7,55.2,40,55.2z"/>
	</defs>
	<clipPath id="SVGID_2_">
		<use xlink:href="#SVGID_1_"  style="overflow:visible;"/>
	</clipPath>
	
		<linearGradient id="SVGID_3_" gradientUnits="userSpaceOnUse" x1="0" y1="2" x2="110" y2="112" gradientTransform="matrix(1 0 0 -1 0 112)">
		<stop  offset="0" style="stop-color:#1A9690"/>
		<stop  offset="1" style="stop-color:#247CB5"/>
	</linearGradient>
	<rect class="st0" width="110" height="110"/>
</g>
<g>
	<defs>
		<path id="SVGID_4_" d="M107.6,2H26.3C25,2,24,3.1,24,4.4v46.9H2.4c-1.3,0-2.4,1.1-2.4,2.4v40c0,7.9,6.4,14.3,14.3,14.3
			c0.2,0,81.3,0,81.3,0c7.9,0,14.3-6.4,14.3-14.3V4.4C110,3.1,108.9,2,107.6,2z M4.8,93.7V56H24v37.7c0,5.3-4.3,9.6-9.6,9.6
			C9.1,103.3,4.8,99,4.8,93.7z M105.2,93.7c0,5.3-4.3,9.6-9.6,9.6H25c2.3-2.5,3.7-5.9,3.7-9.6v-87h76.6L105.2,93.7L105.2,93.7z"/>
	</defs>
	<clipPath id="SVGID_5_">
		<use xlink:href="#SVGID_4_"  style="overflow:visible;"/>
	</clipPath>
	
		<linearGradient id="SVGID_6_" gradientUnits="userSpaceOnUse" x1="0" y1="2" x2="110" y2="112" gradientTransform="matrix(1 0 0 -1 0 112)">
		<stop  offset="0" style="stop-color:#1A9690"/>
		<stop  offset="1" style="stop-color:#247CB5"/>
	</linearGradient>
	<rect class="st1" width="110" height="110"/>
</g>
<g>
	<defs>
		<path id="SVGID_7_" d="M40,29.3h53.9c1.3,0,2.4-1.1,2.4-2.4c0-1.3-1.1-2.4-2.4-2.4H40c-1.3,0-2.4,1.1-2.4,2.4
			C37.6,28.2,38.7,29.3,40,29.3z"/>
	</defs>
	<clipPath id="SVGID_8_">
		<use xlink:href="#SVGID_7_"  style="overflow:visible;"/>
	</clipPath>
	
		<linearGradient id="SVGID_9_" gradientUnits="userSpaceOnUse" x1="0" y1="2" x2="110" y2="112" gradientTransform="matrix(1 0 0 -1 0 112)">
		<stop  offset="0" style="stop-color:#1A9690"/>
		<stop  offset="1" style="stop-color:#247CB5"/>
	</linearGradient>
	<rect class="st2" width="110" height="110"/>
</g>
<g>
	<defs>
		<path id="SVGID_10_" d="M93.9,76.4H40c-1.3,0-2.4,1.1-2.4,2.4c0,1.3,1.1,2.4,2.4,2.4h53.9c1.3,0,2.4-1.1,2.4-2.4
			C96.3,77.5,95.2,76.4,93.9,76.4z"/>
	</defs>
	<clipPath id="SVGID_11_">
		<use xlink:href="#SVGID_10_"  style="overflow:visible;"/>
	</clipPath>
	
		<linearGradient id="SVGID_12_" gradientUnits="userSpaceOnUse" x1="0" y1="2" x2="110" y2="112" gradientTransform="matrix(1 0 0 -1 0 112)">
		<stop  offset="0" style="stop-color:#1A9690"/>
		<stop  offset="1" style="stop-color:#247CB5"/>
	</linearGradient>
	<rect class="st3" width="110" height="110"/>
</g>
</svg>
