<?xml version="1.0" encoding="utf-8"?>
<!-- Generator: Adobe Illustrator 21.0.0, SVG Export Plug-In . SVG Version: 6.00 Build 0)  -->
<svg version="1.1" id="Layer_1" xmlns="http://www.w3.org/2000/svg" xmlns:xlink="http://www.w3.org/1999/xlink" x="0px" y="0px"
	 viewBox="0 0 110 110" style="enable-background:new 0 0 110 110;" xml:space="preserve">
<style type="text/css">
	.st0{clip-path:url(#SVGID_2_);fill:url(#SVGID_3_);}
</style>
<g>
	<defs>
		<path id="SVGID_1_" d="M100.2,25.1l-8.1-4.7c-1-0.6-1.9-1.4-2.5-2.5L85,9.8c-1.2-2.1-3.4-3.4-5.8-3.4h-9.3c-1.2,0-2.3-0.3-3.4-0.9
			l-8.1-4.7c-2.1-1.2-4.7-1.2-6.7,0l-8.1,4.7c-1,0.6-2.2,0.9-3.4,0.9h-9.3c-2.4,0-4.6,1.3-5.8,3.4l-4.7,8.1c-0.6,1-1.4,1.9-2.5,2.5
			L9.8,25c-2.1,1.2-3.4,3.4-3.4,5.8v9.3c0,1.2-0.3,2.3-0.9,3.4l-4.7,8.1c-1.2,2.1-1.2,4.7,0,6.7l4.7,8.1c0.6,1,0.9,2.2,0.9,3.4v9.3
			c0,2.4,1.3,4.6,3.4,5.8l8.1,4.7c1,0.6,1.9,1.4,2.5,2.5l4.7,8.1c1.2,2.1,3.4,3.4,5.8,3.4h9.3c1.2,0,2.3,0.3,3.4,0.9l8.1,4.7
			c2.1,1.2,4.7,1.2,6.7,0l8.1-4.7c1-0.6,2.2-0.9,3.4-0.9h9.3c2.4,0,4.6-1.3,5.8-3.4l4.7-8.1c0.6-1,1.4-1.9,2.5-2.5l8.1-4.7
			c2.1-1.2,3.4-3.4,3.4-5.8v-9.3c0-1.2,0.3-2.3,0.9-3.4l4.7-8.1c1.2-2.1,1.2-4.7,0-6.7l-4.7-8.1c-0.6-1-0.9-2.2-0.9-3.4l0-9.4
			C103.5,28.4,102.3,26.2,100.2,25.1z M49.9,77.9c-1,1-2.4,1.6-3.8,1.5c-1.4,0-2.7-0.5-3.8-1.5L26,61.5c-2.1-2.1-2.1-5.4,0-7.4
			l4.3-4.3c2.1-2.1,5.4-2.1,7.4,0l8.4,8.4l26.1-26.1c2.1-2.1,5.4-2.1,7.4,0l4.3,4.3c2.1,2.1,2.1,5.4,0,7.4L49.9,77.9z"/>
	</defs>
	<clipPath id="SVGID_2_">
		<use xlink:href="#SVGID_1_"  style="overflow:visible;"/>
	</clipPath>
	
		<linearGradient id="SVGID_3_" gradientUnits="userSpaceOnUse" x1="0" y1="2" x2="110" y2="112" gradientTransform="matrix(1 0 0 -1 0 112)">
		<stop  offset="0" style="stop-color:#1B9691"/>
		<stop  offset="1" style="stop-color:#277DB6"/>
	</linearGradient>
	<rect class="st0" width="110" height="110"/>
</g>
</svg>
