<?xml version="1.0" encoding="utf-8"?>
<!-- Generator: Adobe Illustrator 21.0.0, SVG Export Plug-In . SVG Version: 6.00 Build 0)  -->
<svg version="1.1" id="Layer_1" xmlns="http://www.w3.org/2000/svg" xmlns:xlink="http://www.w3.org/1999/xlink" x="0px" y="0px"
	 viewBox="0 0 110 110" style="enable-background:new 0 0 110 110;" xml:space="preserve">
<style type="text/css">
	.st0{clip-path:url(#SVGID_2_);fill:url(#SVGID_3_);}
</style>
<g>
	<defs>
		<path id="SVGID_1_" d="M55,2.5C24.6,2.5,0,26.6,0,56.3c0,23.8,15.8,44,37.6,51.1c2.7,0.5,3.8-1.2,3.8-2.6c0-1.3-0.1-5.5-0.1-10
			c-15.3,3.3-18.5-6.4-18.5-6.4c-2.5-6.2-6.1-7.9-6.1-7.9c-5-3.3,0.4-3.3,0.4-3.3c5.5,0.4,8.4,5.5,8.4,5.5c4.9,8.2,12.9,5.9,16,4.5
			c0.5-3.5,1.9-5.9,3.5-7.2c-12.2-1.4-25.1-6-25.1-26.6c0-5.9,2.1-10.7,5.7-14.5c-0.6-1.4-2.5-6.8,0.5-14.2c0,0,4.6-1.4,15.1,5.5
			c4.4-1.2,9.1-1.8,13.8-1.8c4.7,0,9.4,0.6,13.8,1.8c10.5-7,15.1-5.5,15.1-5.5c3,7.4,1.1,12.9,0.5,14.2c3.5,3.8,5.7,8.6,5.7,14.5
			c0,20.7-12.9,25.2-25.1,26.6c2,1.7,3.7,4.9,3.7,10c0,7.2-0.1,13-0.1,14.8c0,1.4,1,3.1,3.8,2.6c21.8-7.1,37.6-27.3,37.6-51.1
			C110,26.6,85.4,2.5,55,2.5z"/>
	</defs>
	<clipPath id="SVGID_2_">
		<use xlink:href="#SVGID_1_"  style="overflow:visible;"/>
	</clipPath>
	<linearGradient id="SVGID_3_" gradientUnits="userSpaceOnUse" x1="0" y1="110" x2="110" y2="-5.684342e-13">
		<stop  offset="0" style="stop-color:#1A9690"/>
		<stop  offset="1" style="stop-color:#247CB5"/>
	</linearGradient>
	<rect class="st0" width="110" height="110"/>
</g>
</svg>
