<?xml version="1.0" encoding="utf-8"?>
<!-- Generator: Adobe Illustrator 21.0.0, SVG Export Plug-In . SVG Version: 6.00 Build 0)  -->
<svg version="1.1" id="Layer_1" xmlns="http://www.w3.org/2000/svg" xmlns:xlink="http://www.w3.org/1999/xlink" x="0px" y="0px"
	 viewBox="0 0 110 110" style="enable-background:new 0 0 110 110;" xml:space="preserve">
<style type="text/css">
	.st0{clip-path:url(#SVGID_2_);fill:url(#SVGID_3_);}
	.st1{clip-path:url(#SVGID_5_);fill:url(#SVGID_6_);}
	.st2{clip-path:url(#SVGID_8_);fill:url(#SVGID_9_);}
	.st3{clip-path:url(#SVGID_11_);fill:url(#SVGID_12_);}
	.st4{clip-path:url(#SVGID_14_);fill:url(#SVGID_15_);}
	.st5{clip-path:url(#SVGID_17_);fill:url(#SVGID_18_);}
	.st6{clip-path:url(#SVGID_20_);fill:url(#SVGID_21_);}
	.st7{clip-path:url(#SVGID_23_);fill:url(#SVGID_24_);}
	.st8{clip-path:url(#SVGID_26_);fill:url(#SVGID_27_);}
	.st9{clip-path:url(#SVGID_29_);fill:url(#SVGID_30_);}
	.st10{clip-path:url(#SVGID_32_);fill:url(#SVGID_33_);}
	.st11{clip-path:url(#SVGID_35_);fill:url(#SVGID_36_);}
	.st12{clip-path:url(#SVGID_38_);fill:url(#SVGID_39_);}
	.st13{clip-path:url(#SVGID_41_);fill:url(#SVGID_42_);}
	.st14{clip-path:url(#SVGID_44_);fill:url(#SVGID_45_);}
	.st15{clip-path:url(#SVGID_47_);fill:url(#SVGID_48_);}
	.st16{clip-path:url(#SVGID_50_);fill:url(#SVGID_51_);}
	.st17{clip-path:url(#SVGID_53_);fill:url(#SVGID_54_);}
	.st18{clip-path:url(#SVGID_56_);fill:url(#SVGID_57_);}
	.st19{clip-path:url(#SVGID_59_);fill:url(#SVGID_60_);}
	.st20{clip-path:url(#SVGID_62_);fill:url(#SVGID_63_);}
	.st21{clip-path:url(#SVGID_65_);fill:url(#SVGID_66_);}
	.st22{clip-path:url(#SVGID_68_);fill:url(#SVGID_69_);}
	.st23{clip-path:url(#SVGID_71_);fill:url(#SVGID_72_);}
	.st24{clip-path:url(#SVGID_74_);fill:url(#SVGID_75_);}
</style>
<g>
	<defs>
		<path id="SVGID_1_" d="M64,93.5c1,0,1.8,0.8,1.8,1.8S65,97.2,64,97.2c-1,0-1.8-0.8-1.8-1.8S63,93.5,64,93.5z"/>
	</defs>
	<clipPath id="SVGID_2_">
		<use xlink:href="#SVGID_1_"  style="overflow:visible;"/>
	</clipPath>
	
		<linearGradient id="SVGID_3_" gradientUnits="userSpaceOnUse" x1="0" y1="2" x2="110" y2="112" gradientTransform="matrix(1 0 0 -1 0 112)">
		<stop  offset="0" style="stop-color:#1B9691"/>
		<stop  offset="1" style="stop-color:#277DB6"/>
	</linearGradient>
	<rect class="st0" width="110" height="110"/>
</g>
<g>
	<defs>
		<path id="SVGID_4_" d="M71.2,93.5c1,0,1.8,0.8,1.8,1.8s-0.8,1.8-1.8,1.8c-1,0-1.8-0.8-1.8-1.8S70.2,93.5,71.2,93.5z"/>
	</defs>
	<clipPath id="SVGID_5_">
		<use xlink:href="#SVGID_4_"  style="overflow:visible;"/>
	</clipPath>
	
		<linearGradient id="SVGID_6_" gradientUnits="userSpaceOnUse" x1="0" y1="2" x2="110" y2="112" gradientTransform="matrix(1 0 0 -1 0 112)">
		<stop  offset="0" style="stop-color:#1B9691"/>
		<stop  offset="1" style="stop-color:#277DB6"/>
	</linearGradient>
	<rect class="st1" width="110" height="110"/>
</g>
<g>
	<defs>
		<path id="SVGID_7_" d="M78.4,93.5c1,0,1.8,0.8,1.8,1.8s-0.8,1.8-1.8,1.8c-1,0-1.8-0.8-1.8-1.8S77.4,93.5,78.4,93.5z"/>
	</defs>
	<clipPath id="SVGID_8_">
		<use xlink:href="#SVGID_7_"  style="overflow:visible;"/>
	</clipPath>
	
		<linearGradient id="SVGID_9_" gradientUnits="userSpaceOnUse" x1="-1.818989e-12" y1="2" x2="110" y2="112" gradientTransform="matrix(1 0 0 -1 0 112)">
		<stop  offset="0" style="stop-color:#1B9691"/>
		<stop  offset="1" style="stop-color:#277DB6"/>
	</linearGradient>
	<rect y="0" class="st2" width="110" height="110"/>
</g>
<g>
	<defs>
		<path id="SVGID_10_" d="M60.4,58.7c1,0,1.8,0.8,1.8,1.8c0,1-0.8,1.8-1.8,1.8c-1,0-1.8-0.8-1.8-1.8C58.6,59.5,59.4,58.7,60.4,58.7z
			"/>
	</defs>
	<clipPath id="SVGID_11_">
		<use xlink:href="#SVGID_10_"  style="overflow:visible;"/>
	</clipPath>
	
		<linearGradient id="SVGID_12_" gradientUnits="userSpaceOnUse" x1="0" y1="2" x2="110" y2="112" gradientTransform="matrix(1 0 0 -1 0 112)">
		<stop  offset="0" style="stop-color:#1B9691"/>
		<stop  offset="1" style="stop-color:#277DB6"/>
	</linearGradient>
	<rect class="st3" width="110" height="110"/>
</g>
<g>
	<defs>
		<path id="SVGID_13_" d="M64,38.5c1,0,1.8,0.8,1.8,1.8c0,1-0.8,1.8-1.8,1.8c-1,0-1.8-0.8-1.8-1.8C62.2,39.3,63,38.5,64,38.5z"/>
	</defs>
	<clipPath id="SVGID_14_">
		<use xlink:href="#SVGID_13_"  style="overflow:visible;"/>
	</clipPath>
	
		<linearGradient id="SVGID_15_" gradientUnits="userSpaceOnUse" x1="0" y1="2" x2="110" y2="112" gradientTransform="matrix(1 0 0 -1 0 112)">
		<stop  offset="0" style="stop-color:#1B9691"/>
		<stop  offset="1" style="stop-color:#277DB6"/>
	</linearGradient>
	<rect class="st4" width="110" height="110"/>
</g>
<g>
	<defs>
		<path id="SVGID_16_" d="M71.2,38.5c1,0,1.8,0.8,1.8,1.8c0,1-0.8,1.8-1.8,1.8c-1,0-1.8-0.8-1.8-1.8C69.4,39.3,70.2,38.5,71.2,38.5z
			"/>
	</defs>
	<clipPath id="SVGID_17_">
		<use xlink:href="#SVGID_16_"  style="overflow:visible;"/>
	</clipPath>
	
		<linearGradient id="SVGID_18_" gradientUnits="userSpaceOnUse" x1="0" y1="2" x2="110" y2="112" gradientTransform="matrix(1 0 0 -1 0 112)">
		<stop  offset="0" style="stop-color:#1B9691"/>
		<stop  offset="1" style="stop-color:#277DB6"/>
	</linearGradient>
	<rect y="0" class="st5" width="110" height="110"/>
</g>
<g>
	<defs>
		<path id="SVGID_19_" d="M67.6,34.8c1,0,1.8,0.8,1.8,1.8c0,1-0.8,1.8-1.8,1.8c-1,0-1.8-0.8-1.8-1.8C65.8,35.7,66.6,34.8,67.6,34.8z
			"/>
	</defs>
	<clipPath id="SVGID_20_">
		<use xlink:href="#SVGID_19_"  style="overflow:visible;"/>
	</clipPath>
	
		<linearGradient id="SVGID_21_" gradientUnits="userSpaceOnUse" x1="-1.818989e-12" y1="2" x2="110" y2="112" gradientTransform="matrix(1 0 0 -1 0 112)">
		<stop  offset="0" style="stop-color:#1B9691"/>
		<stop  offset="1" style="stop-color:#277DB6"/>
	</linearGradient>
	<rect y="0" class="st6" width="110" height="110"/>
</g>
<g>
	<defs>
		<path id="SVGID_22_" d="M71.2,31.2c1,0,1.8,0.8,1.8,1.8c0,1-0.8,1.8-1.8,1.8c-1,0-1.8-0.8-1.8-1.8C69.4,32,70.2,31.2,71.2,31.2z"
			/>
	</defs>
	<clipPath id="SVGID_23_">
		<use xlink:href="#SVGID_22_"  style="overflow:visible;"/>
	</clipPath>
	
		<linearGradient id="SVGID_24_" gradientUnits="userSpaceOnUse" x1="0" y1="2" x2="110" y2="112" gradientTransform="matrix(1 0 0 -1 0 112)">
		<stop  offset="0" style="stop-color:#1B9691"/>
		<stop  offset="1" style="stop-color:#277DB6"/>
	</linearGradient>
	<rect class="st7" width="110" height="110"/>
</g>
<g>
	<defs>
		<path id="SVGID_25_" d="M64,45.8c1,0,1.8,0.8,1.8,1.8c0,1-0.8,1.8-1.8,1.8c-1,0-1.8-0.8-1.8-1.8C62.2,46.7,63,45.8,64,45.8z"/>
	</defs>
	<clipPath id="SVGID_26_">
		<use xlink:href="#SVGID_25_"  style="overflow:visible;"/>
	</clipPath>
	
		<linearGradient id="SVGID_27_" gradientUnits="userSpaceOnUse" x1="0" y1="2" x2="110" y2="112" gradientTransform="matrix(1 0 0 -1 0 112)">
		<stop  offset="0" style="stop-color:#1B9691"/>
		<stop  offset="1" style="stop-color:#277DB6"/>
	</linearGradient>
	<rect class="st8" width="110" height="110"/>
</g>
<g>
	<defs>
		<path id="SVGID_28_" d="M60.4,42.2c1,0,1.8,0.8,1.8,1.8c0,1-0.8,1.8-1.8,1.8c-1,0-1.8-0.8-1.8-1.8C58.6,43,59.4,42.2,60.4,42.2z"
			/>
	</defs>
	<clipPath id="SVGID_29_">
		<use xlink:href="#SVGID_28_"  style="overflow:visible;"/>
	</clipPath>
	
		<linearGradient id="SVGID_30_" gradientUnits="userSpaceOnUse" x1="0" y1="2" x2="110" y2="112" gradientTransform="matrix(1 0 0 -1 0 112)">
		<stop  offset="0" style="stop-color:#1B9691"/>
		<stop  offset="1" style="stop-color:#277DB6"/>
	</linearGradient>
	<rect class="st9" width="110" height="110"/>
</g>
<g>
	<defs>
		<path id="SVGID_31_" d="M67.6,42.2c1,0,1.8,0.8,1.8,1.8c0,1-0.8,1.8-1.8,1.8c-1,0-1.8-0.8-1.8-1.8C65.8,43,66.6,42.2,67.6,42.2z"
			/>
	</defs>
	<clipPath id="SVGID_32_">
		<use xlink:href="#SVGID_31_"  style="overflow:visible;"/>
	</clipPath>
	
		<linearGradient id="SVGID_33_" gradientUnits="userSpaceOnUse" x1="0" y1="2" x2="110" y2="112" gradientTransform="matrix(1 0 0 -1 0 112)">
		<stop  offset="0" style="stop-color:#1B9691"/>
		<stop  offset="1" style="stop-color:#277DB6"/>
	</linearGradient>
	<rect y="0" class="st10" width="110" height="110"/>
</g>
<g>
	<defs>
		<path id="SVGID_34_" d="M60.4,64.2c1,0,1.8,0.8,1.8,1.8c0,1-0.8,1.8-1.8,1.8c-1,0-1.8-0.8-1.8-1.8C58.6,65,59.4,64.2,60.4,64.2z"
			/>
	</defs>
	<clipPath id="SVGID_35_">
		<use xlink:href="#SVGID_34_"  style="overflow:visible;"/>
	</clipPath>
	
		<linearGradient id="SVGID_36_" gradientUnits="userSpaceOnUse" x1="0" y1="2" x2="110" y2="112" gradientTransform="matrix(1 0 0 -1 0 112)">
		<stop  offset="0" style="stop-color:#1B9691"/>
		<stop  offset="1" style="stop-color:#277DB6"/>
	</linearGradient>
	<rect class="st11" width="110" height="110"/>
</g>
<g>
	<defs>
		<path id="SVGID_37_" d="M60.4,69.7c1,0,1.8,0.8,1.8,1.8c0,1-0.8,1.8-1.8,1.8c-1,0-1.8-0.8-1.8-1.8C58.6,70.5,59.4,69.7,60.4,69.7z
			"/>
	</defs>
	<clipPath id="SVGID_38_">
		<use xlink:href="#SVGID_37_"  style="overflow:visible;"/>
	</clipPath>
	
		<linearGradient id="SVGID_39_" gradientUnits="userSpaceOnUse" x1="0" y1="2" x2="110" y2="112" gradientTransform="matrix(1 0 0 -1 0 112)">
		<stop  offset="0" style="stop-color:#1B9691"/>
		<stop  offset="1" style="stop-color:#277DB6"/>
	</linearGradient>
	<rect class="st12" width="110" height="110"/>
</g>
<g>
	<defs>
		<path id="SVGID_40_" d="M60.4,75.2c1,0,1.8,0.8,1.8,1.8c0,1-0.8,1.8-1.8,1.8c-1,0-1.8-0.8-1.8-1.8C58.6,76,59.4,75.2,60.4,75.2z"
			/>
	</defs>
	<clipPath id="SVGID_41_">
		<use xlink:href="#SVGID_40_"  style="overflow:visible;"/>
	</clipPath>
	
		<linearGradient id="SVGID_42_" gradientUnits="userSpaceOnUse" x1="0" y1="2" x2="110" y2="112" gradientTransform="matrix(1 0 0 -1 0 112)">
		<stop  offset="0" style="stop-color:#1B9691"/>
		<stop  offset="1" style="stop-color:#277DB6"/>
	</linearGradient>
	<rect class="st13" width="110" height="110"/>
</g>
<g>
	<defs>
		<path id="SVGID_43_" d="M60.4,80.7c1,0,1.8,0.8,1.8,1.8c0,1-0.8,1.8-1.8,1.8c-1,0-1.8-0.8-1.8-1.8C58.6,81.5,59.4,80.7,60.4,80.7z
			"/>
	</defs>
	<clipPath id="SVGID_44_">
		<use xlink:href="#SVGID_43_"  style="overflow:visible;"/>
	</clipPath>
	
		<linearGradient id="SVGID_45_" gradientUnits="userSpaceOnUse" x1="0" y1="2" x2="110" y2="112" gradientTransform="matrix(1 0 0 -1 0 112)">
		<stop  offset="0" style="stop-color:#1B9691"/>
		<stop  offset="1" style="stop-color:#277DB6"/>
	</linearGradient>
	<rect class="st14" width="110" height="110"/>
</g>
<g>
	<defs>
		<path id="SVGID_46_" d="M60.4,86.2c1,0,1.8,0.8,1.8,1.8s-0.8,1.8-1.8,1.8c-1,0-1.8-0.8-1.8-1.8S59.4,86.2,60.4,86.2z"/>
	</defs>
	<clipPath id="SVGID_47_">
		<use xlink:href="#SVGID_46_"  style="overflow:visible;"/>
	</clipPath>
	
		<linearGradient id="SVGID_48_" gradientUnits="userSpaceOnUse" x1="0" y1="2" x2="110" y2="112" gradientTransform="matrix(1 0 0 -1 0 112)">
		<stop  offset="0" style="stop-color:#1B9691"/>
		<stop  offset="1" style="stop-color:#277DB6"/>
	</linearGradient>
	<rect class="st15" width="110" height="110"/>
</g>
<g>
	<defs>
		<path id="SVGID_49_" d="M67.6,89.8c1,0,1.8,0.8,1.8,1.8c0,1-0.8,1.8-1.8,1.8c-1,0-1.8-0.8-1.8-1.8C65.8,90.7,66.6,89.8,67.6,89.8z
			"/>
	</defs>
	<clipPath id="SVGID_50_">
		<use xlink:href="#SVGID_49_"  style="overflow:visible;"/>
	</clipPath>
	
		<linearGradient id="SVGID_51_" gradientUnits="userSpaceOnUse" x1="0" y1="2" x2="110" y2="112" gradientTransform="matrix(1 0 0 -1 0 112)">
		<stop  offset="0" style="stop-color:#1B9691"/>
		<stop  offset="1" style="stop-color:#277DB6"/>
	</linearGradient>
	<rect class="st16" width="110" height="110"/>
</g>
<g>
	<defs>
		<path id="SVGID_52_" d="M74.8,89.8c1,0,1.8,0.8,1.8,1.8c0,1-0.8,1.8-1.8,1.8c-1,0-1.8-0.8-1.8-1.8C73,90.7,73.8,89.8,74.8,89.8z"
			/>
	</defs>
	<clipPath id="SVGID_53_">
		<use xlink:href="#SVGID_52_"  style="overflow:visible;"/>
	</clipPath>
	
		<linearGradient id="SVGID_54_" gradientUnits="userSpaceOnUse" x1="-1.818989e-12" y1="2" x2="110" y2="112" gradientTransform="matrix(1 0 0 -1 0 112)">
		<stop  offset="0" style="stop-color:#1B9691"/>
		<stop  offset="1" style="stop-color:#277DB6"/>
	</linearGradient>
	<rect y="0" class="st17" width="110" height="110"/>
</g>
<g>
	<defs>
		<path id="SVGID_55_" d="M44.2,20.2h-9c-1,0-1.8,0.8-1.8,1.8c0,1,0.8,1.8,1.8,1.8h9c1,0,1.8-0.8,1.8-1.8C46,21,45.2,20.2,44.2,20.2
			z"/>
	</defs>
	<clipPath id="SVGID_56_">
		<use xlink:href="#SVGID_55_"  style="overflow:visible;"/>
	</clipPath>
	
		<linearGradient id="SVGID_57_" gradientUnits="userSpaceOnUse" x1="0" y1="2" x2="110" y2="112" gradientTransform="matrix(1 0 0 -1 0 112)">
		<stop  offset="0" style="stop-color:#1B9691"/>
		<stop  offset="1" style="stop-color:#277DB6"/>
	</linearGradient>
	<rect class="st18" width="110" height="110"/>
</g>
<g>
	<defs>
		<path id="SVGID_58_" d="M44.2,33h-18c-1,0-1.8,0.8-1.8,1.8c0,1,0.8,1.8,1.8,1.8h18c1,0,1.8-0.8,1.8-1.8C46,33.8,45.2,33,44.2,33z"
			/>
	</defs>
	<clipPath id="SVGID_59_">
		<use xlink:href="#SVGID_58_"  style="overflow:visible;"/>
	</clipPath>
	
		<linearGradient id="SVGID_60_" gradientUnits="userSpaceOnUse" x1="0" y1="2" x2="110" y2="112" gradientTransform="matrix(1 0 0 -1 0 112)">
		<stop  offset="0" style="stop-color:#1B9691"/>
		<stop  offset="1" style="stop-color:#277DB6"/>
	</linearGradient>
	<rect class="st19" width="110" height="110"/>
</g>
<g>
	<defs>
		<path id="SVGID_61_" d="M44.2,45.8h-27c-1,0-1.8,0.8-1.8,1.8c0,1,0.8,1.8,1.8,1.8h27c1,0,1.8-0.8,1.8-1.8
			C46,46.7,45.2,45.8,44.2,45.8z"/>
	</defs>
	<clipPath id="SVGID_62_">
		<use xlink:href="#SVGID_61_"  style="overflow:visible;"/>
	</clipPath>
	
		<linearGradient id="SVGID_63_" gradientUnits="userSpaceOnUse" x1="0" y1="2" x2="110" y2="112" gradientTransform="matrix(1 0 0 -1 0 112)">
		<stop  offset="0" style="stop-color:#1B9691"/>
		<stop  offset="1" style="stop-color:#277DB6"/>
	</linearGradient>
	<rect class="st20" width="110" height="110"/>
</g>
<g>
	<defs>
		<path id="SVGID_64_" d="M44.2,58.7H10c-1,0-1.8,0.8-1.8,1.8c0,1,0.8,1.8,1.8,1.8h34.2c1,0,1.8-0.8,1.8-1.8
			C46,59.5,45.2,58.7,44.2,58.7z"/>
	</defs>
	<clipPath id="SVGID_65_">
		<use xlink:href="#SVGID_64_"  style="overflow:visible;"/>
	</clipPath>
	
		<linearGradient id="SVGID_66_" gradientUnits="userSpaceOnUse" x1="0" y1="2" x2="110" y2="112" gradientTransform="matrix(1 0 0 -1 0 112)">
		<stop  offset="0" style="stop-color:#1B9691"/>
		<stop  offset="1" style="stop-color:#277DB6"/>
	</linearGradient>
	<rect class="st21" width="110" height="110"/>
</g>
<g>
	<defs>
		<path id="SVGID_67_" d="M44.2,71.5H20.8c-1,0-1.8,0.8-1.8,1.8s0.8,1.8,1.8,1.8h23.4c1,0,1.8-0.8,1.8-1.8S45.2,71.5,44.2,71.5z"/>
	</defs>
	<clipPath id="SVGID_68_">
		<use xlink:href="#SVGID_67_"  style="overflow:visible;"/>
	</clipPath>
	
		<linearGradient id="SVGID_69_" gradientUnits="userSpaceOnUse" x1="0" y1="2" x2="110" y2="112" gradientTransform="matrix(1 0 0 -1 0 112)">
		<stop  offset="0" style="stop-color:#1B9691"/>
		<stop  offset="1" style="stop-color:#277DB6"/>
	</linearGradient>
	<rect class="st22" width="110" height="110"/>
</g>
<g>
	<defs>
		<path id="SVGID_70_" d="M44.2,84.3H31.6c-1,0-1.8,0.8-1.8,1.8c0,1,0.8,1.8,1.8,1.8h12.6c1,0,1.8-0.8,1.8-1.8
			C46,85.2,45.2,84.3,44.2,84.3z"/>
	</defs>
	<clipPath id="SVGID_71_">
		<use xlink:href="#SVGID_70_"  style="overflow:visible;"/>
	</clipPath>
	
		<linearGradient id="SVGID_72_" gradientUnits="userSpaceOnUse" x1="0" y1="2" x2="110" y2="112" gradientTransform="matrix(1 0 0 -1 0 112)">
		<stop  offset="0" style="stop-color:#1B9691"/>
		<stop  offset="1" style="stop-color:#277DB6"/>
	</linearGradient>
	<rect class="st23" width="110" height="110"/>
</g>
<g>
	<defs>
		<path id="SVGID_73_" d="M96.4,99h-9V88c0-13.9-7.5-26.5-19.3-33c11.8-6.5,19.3-19.1,19.3-33V11h9c3,0,5.4-2.5,5.4-5.5
			c0-3-2.4-5.5-5.4-5.5H55c-1,0-1.8,0.8-1.8,1.8c0,1,0.8,1.8,1.8,1.8h41.4c1,0,1.8,0.8,1.8,1.8c0,1-0.8,1.8-1.8,1.8h-9H55
			c-1,0-1.8,0.8-1.8,1.8c0,1,0.8,1.8,1.8,1.8h28.8v11c0,13.7-8,26-20.5,31.3c0,0,0,0,0,0c0,0,0,0,0,0c0,0,0,0-0.1,0
			c-0.2,0.1-0.4,0.2-0.5,0.4c-0.1,0.1-0.2,0.3-0.3,0.4c0,0.1-0.1,0.1-0.1,0.1c0,0,0,0,0,0c-0.1,0.2-0.1,0.5-0.1,0.7
			c0,0.2,0,0.5,0.1,0.7c0,0,0,0,0,0c0.1,0.2,0.2,0.4,0.3,0.5c0,0,0.1,0.1,0.1,0.1c0.1,0.1,0.3,0.2,0.4,0.3c0,0,0.1,0,0.1,0.1
			C75.7,62,83.8,74.3,83.8,88v11c0-1-0.8-1.8-1.8-1.8c-1,0-1.8,0.8-1.8,1.8h-3.6c0-1-0.8-1.8-1.8-1.8c-1,0-1.8,0.8-1.8,1.8h-3.6
			c0-1-0.8-1.8-1.8-1.8c-1,0-1.8,0.8-1.8,1.8h-3.6c0-1-0.8-1.8-1.8-1.8c-1,0-1.8,0.8-1.8,1.8H55c-1,0-1.8,0.8-1.8,1.8
			s0.8,1.8,1.8,1.8h32.4h9c1,0,1.8,0.8,1.8,1.8c0,1-0.8,1.8-1.8,1.8H55c-1,0-1.8,0.8-1.8,1.8c0,1,0.8,1.8,1.8,1.8h41.4
			c3,0,5.4-2.5,5.4-5.5C101.8,101.5,99.3,99,96.4,99z"/>
	</defs>
	<clipPath id="SVGID_74_">
		<use xlink:href="#SVGID_73_"  style="overflow:visible;"/>
	</clipPath>
	
		<linearGradient id="SVGID_75_" gradientUnits="userSpaceOnUse" x1="0" y1="2" x2="110" y2="112" gradientTransform="matrix(1 0 0 -1 0 112)">
		<stop  offset="0" style="stop-color:#1B9691"/>
		<stop  offset="1" style="stop-color:#277DB6"/>
	</linearGradient>
	<rect class="st24" width="110" height="110"/>
</g>
</svg>
