<?xml version="1.0" encoding="utf-8"?>
<!-- Generator: Adobe Illustrator 21.0.0, SVG Export Plug-In . SVG Version: 6.00 Build 0)  -->
<svg version="1.1" id="Layer_1" xmlns="http://www.w3.org/2000/svg" xmlns:xlink="http://www.w3.org/1999/xlink" x="0px" y="0px"
	 viewBox="0 0 110 110" style="enable-background:new 0 0 110 110;" xml:space="preserve">
<style type="text/css">
	.st0{clip-path:url(#SVGID_2_);fill:url(#SVGID_3_);}
	.st1{clip-path:url(#SVGID_5_);fill:url(#SVGID_6_);}
	.st2{clip-path:url(#SVGID_8_);fill:url(#SVGID_9_);}
</style>
<g>
	<defs>
		<path id="SVGID_1_" d="M46.8,26.1c0,0.2,0.1,0.3,0.3,0.3c0.2,0,0.3-0.2,0.5-0.6c0.2-0.4,0.5-0.6,0.9-0.6c-0.2,0-0.4,0-0.6,0
			C47.2,25.4,46.8,25.7,46.8,26.1z"/>
	</defs>
	<clipPath id="SVGID_2_">
		<use xlink:href="#SVGID_1_"  style="overflow:visible;"/>
	</clipPath>
	<linearGradient id="SVGID_3_" gradientUnits="userSpaceOnUse" x1="0" y1="110" x2="110" y2="-5.684342e-13">
		<stop  offset="0" style="stop-color:#1A9690"/>
		<stop  offset="1" style="stop-color:#247CB5"/>
	</linearGradient>
	<rect class="st0" width="110" height="110"/>
</g>
<g>
	<defs>
		<path id="SVGID_4_" d="M52.1,25.4c0.4-0.1,0.8,0,1.1,0.3c0.3,0.3,0.5,0.4,0.7,0.4c0.2-0.1,0.3-0.3,0.2-0.6
			C53.8,25,53.1,25,52.1,25.4z"/>
	</defs>
	<clipPath id="SVGID_5_">
		<use xlink:href="#SVGID_4_"  style="overflow:visible;"/>
	</clipPath>
	<linearGradient id="SVGID_6_" gradientUnits="userSpaceOnUse" x1="0" y1="110" x2="110" y2="-5.684342e-13">
		<stop  offset="0" style="stop-color:#1A9690"/>
		<stop  offset="1" style="stop-color:#247CB5"/>
	</linearGradient>
	<rect class="st1" width="110" height="110"/>
</g>
<g>
	<defs>
		<path id="SVGID_7_" d="M98.6,90.6c-0.1-0.1-0.5-0.3-1-0.6c-0.5-0.3-1-0.6-1.3-0.8C96,89,95.6,88.6,95,88.1
			c-0.5-0.6-0.9-1.1-1.2-1.7c-0.3-0.6-0.6-1.4-0.9-2.5c-0.3-1-0.4-2.2-0.5-3.5c-0.6,0.5-0.9,1.5-0.9,2.9c-0.1,1.5,0.2,2.9,0.9,4.4
			c0.7,1.5,1.7,2.5,3,2.9c1.3,0.5,2.3,0.9,3.1,1.4c0.8,0.5,1.3,1.1,1.5,1.7c0.2,0.7-0.2,1.4-1.1,2.1c-1,0.8-2.5,1.5-4.7,2.2
			c-3,1-5.1,1.9-6.3,2.6c-1.2,0.7-3,2.1-5.4,4.1c-1.6,1.3-3.3,2.1-5.2,2.2c-1.8,0.1-3.3-0.6-4.4-2c-1.1-1.5-1.5-3.5-1.1-6.2
			c0.8-5.1,0.7-9.1-0.1-12c-0.6-2.2-0.8-4.2-0.4-6c0.4-1.7,0.9-2.7,1.7-3c0.8-0.3,1.6,0.3,2.5,1.8c0.1,0.2,0.3,0.6,0.5,1.2
			c0.3,0.6,0.5,1,0.7,1.3c0.2,0.2,0.5,0.6,0.8,1c0.4,0.4,0.8,0.7,1.4,0.8c0.5,0.2,1.2,0.3,1.9,0.3c1.4,0,2.6-0.2,3.7-0.9
			c1.1-0.6,1.9-1.3,2.5-2.1c0.5-0.8,1.1-1.5,1.6-2.2c0.5-0.7,1-1.1,1.4-1.2c0.4-0.1,0.9-0.5,1.2-1.3c0.4-0.8,0.6-2,0.7-3.4
			c0.1-1.5,0-3.2-0.3-5.2c-0.6-3.6-1.8-7.5-3.6-11.7c-1.8-4.3-3.8-7.6-6-10c-4-4.3-6.7-8.8-8.1-13.4c-1.4-4.9-2-9.2-1.8-13.1
			c0.2-2.8-0.4-5.8-1.8-9.1c-1.4-3.3-3.3-5.7-5.6-7.5c-1.5-1.1-3.3-2-5.4-2.5C57.3,0.2,55.1,0,53,0c-2.6,0-4.7,0.4-6.3,1.3
			c-3.2,1.8-5.4,3.9-6.4,6.4c-1.1,2.5-1.5,5.6-1.5,9.3c0.2,8.1,0.5,14.4,1,19c-0.6,2.1-3.1,6.1-7.5,12c-0.8,0.8-1.6,1.9-2.4,3.3
			c-0.8,1.4-1.4,2.6-1.8,3.7c-0.4,1.1-1,2.7-1.8,4.8c-0.7,2.1-1.3,3.6-1.6,4.4c-0.3,0.7-0.7,1.6-1.3,2.6c-0.6,1-1.1,1.9-1.5,2.9
			c-0.4,0.9-0.6,2-0.6,3.2c0,0.9,0,1.7,0.1,2.3c0.2,1,0.5,1.3,0.9,0.9c1.8-1.4,4.1-0.6,6.9,2.5c1.9,2.1,5.4,7.1,10.3,14.9
			c0.4,0.7,0.8,1.4,1.2,2.2c0.4,0.8,0.8,1.9,1.2,3.2c0.4,1.3,0.5,2.5,0.5,3.6c-0.1,1.1-0.5,2-1.4,2.9c-0.9,0.9-2.2,1.5-3.9,1.7
			c-0.9,0.1-2.1,0-3.4-0.2c-1.3-0.3-3-0.8-5-1.4c-2-0.7-3.5-1.1-4.5-1.3c-1.4-0.3-3.4-0.7-6-1.3c-2.6-0.5-4.3-0.9-5.1-1.1
			c-1.4-0.4-2.1-0.9-2.2-1.6c-0.1-0.6,0.2-1.6,0.9-2.9c0.7-1.4,1-2.4,1-3c0-0.4,0-0.9-0.1-1.3c-0.1-0.4-0.2-0.8-0.3-1
			c-0.1-0.2-0.3-0.6-0.5-1.1c-0.2-0.5-0.4-0.9-0.5-1.1c-0.7-1.7-0.8-2.9-0.3-3.5c0.4-0.5,1.2-0.7,2.6-0.6c2.1,0.2,3.7-0.1,5-0.9
			c2.1-1.4,2.8-3.5,1.9-6.5c0,1.4-0.2,2.4-0.7,3.1c-0.5,0.7-1.3,1.4-2.6,2.1c-0.7,0.4-1.9,0.7-3.6,0.7c-1.7,0.1-2.9,0.4-3.5,0.9
			c-0.4,0.4-0.6,0.9-0.6,1.7c0,0.7,0.1,1.5,0.3,2.2c0.2,0.8,0.4,1.6,0.6,2.6c0.2,1,0.3,1.8,0.2,2.5c0,0.4-0.4,1.6-1.1,3.3
			c-0.7,1.8-0.8,3.1-0.4,4.1c0.2,0.4,0.5,0.8,1,1.2c0.5,0.3,1.2,0.6,2,0.9c0.9,0.2,1.7,0.4,2.4,0.6c0.7,0.1,1.7,0.3,3,0.6
			c1.3,0.2,2.3,0.4,3.1,0.6c2.6,0.5,5.5,1.4,8.9,2.6c3.3,1.2,5.6,1.9,6.7,1.9c1.1,0,2.2-0.2,3.3-0.7c1-0.5,1.9-1.1,2.6-1.7
			c0.7-0.7,1.8-1.3,3.3-1.8c1.4-0.6,3-0.9,4.8-0.9c0.8,0,2-0.1,3.5-0.2c1.5-0.1,2.7-0.1,3.5-0.1c3.5,0,6.1,0,7.9,0.1
			c1.2,0,2.2,0.2,2.9,0.6c0.7,0.3,1.1,0.7,1.3,1.2c0.2,0.4,0.5,1,1,1.6c0.5,0.6,1.1,1.1,1.8,1.4c1.5,0.7,3.3,1,5.4,0.9
			c2.1-0.1,3.4-0.5,4.1-1.2c1.1-1.1,2.7-2.4,4.6-3.9c1.9-1.5,3.7-2.7,5.2-3.4c0.3-0.2,0.9-0.4,1.6-0.8c0.8-0.4,1.4-0.7,1.9-1
			c0.5-0.3,1.2-0.6,1.9-1c0.7-0.4,1.4-0.8,1.8-1.1c0.5-0.3,0.9-0.7,1.4-1.2c0.5-0.5,0.8-0.9,0.9-1.4c0.1-0.4,0.2-0.9,0.2-1.4
			c0-0.5-0.3-1-0.7-1.5C100.1,91.6,99.4,91.1,98.6,90.6z M70.3,88.2c0.3,2.1,0.5,3.7,0.4,4.5c-0.1,1.3-0.4,3.2-0.8,5.5
			c-0.5,2.4-0.8,3.9-0.9,4.7c-0.9,0-1.3-0.4-1.5-1c-0.1-0.6,0-1.4,0.4-2.3c0.9-2.7,1.4-4.6,1.4-5.6c0.1-1.9-0.1-2.9-0.6-3.2
			c-0.4-0.3-1.1,0.3-2.1,1.8c-1.8,2.9-5.4,4.7-10.8,5.3c-4.9,0.7-8.2-0.1-10.1-2.2c-0.4-0.3-0.8-0.3-1.2-0.2
			c-0.4,0.2-0.7,0.4-0.8,0.6c0,0.1,0,0.2,0.1,0.4c0.1,0.2,0.3,0.4,0.6,0.7c0.3,0.3,0.5,0.7,0.6,1c1.6,2.8,1.4,4.7-0.4,5.6
			c0-1.9-0.1-3.3-0.4-4.3c-0.3-1-0.9-2.1-1.7-3.3c-0.9-1.2-1.4-2.1-1.8-2.7c1.2-0.1,2.1-0.6,2.8-1.4c0.6-0.8,0.9-1.7,0.9-2.6
			c-0.1-0.9-0.4-1.7-1.1-2.3c-0.4-0.4-2.2-1.9-5.7-4.7c-3.4-2.8-5.5-4.6-6.3-5.6c-0.2-0.2-0.6-0.6-1.5-1.2c-0.8-0.7-1.3-1.2-1.5-1.7
			c-1.9-4.1-2.1-7.5-0.6-10.2l0.2-0.3c0.2,0,0.2,0.3,0.1,1.1c-0.2,1.1-0.3,2.3-0.2,3.4c0.2,2.6,0.9,4.5,2.2,5.8
			c0.9,0.9,1.4,0.8,1.8-0.2c0.2-0.3,0.4-1.5,0.3-3.6c0-2.1,0-3.5,0.1-4.2c0.3-2.3,1.3-5.2,2.9-8.7c1.6-3.4,2.9-5.3,3.8-5.5
			c-0.7-1.2-1-2.5-0.7-3.9c0.3-1.4,0.7-2.6,1.3-3.6c0.6-1,1.2-2.1,1.8-3.4c0.6-1.3,0.9-2.4,0.9-3.5c0-0.3,0-0.5,0.1-0.6
			c0.1-0.4,0.6,0.1,1.5,1.3c1.7,2.5,3,4,3.8,4.5c0.9,0.5,1.9,0.5,3-0.1c1.1-0.5,2.4-1.4,4-2.6c1.6-1.2,3-2.1,4.1-2.7
			c0.1,0,0.3-0.1,0.6-0.3c0.3-0.1,0.5-0.2,0.6-0.3c0.1-0.1,0.3-0.2,0.5-0.3c0.2-0.1,0.4-0.2,0.5-0.3c0.1-0.1,0.2-0.2,0.4-0.3
			c0.1-0.1,0.2-0.2,0.2-0.3c0-0.1,0.1-0.2,0.1-0.3c-0.1-0.4-0.3-0.6-0.5-0.7c-0.3-0.1-0.6,0-1.1,0.2c-0.4,0.2-0.9,0.4-1.5,0.7
			c-0.5,0.3-1.2,0.7-1.8,1c-0.7,0.4-1.3,0.7-2,1.1c-0.7,0.3-1.4,0.6-2.2,0.9c-0.8,0.2-1.5,0.4-2.2,0.4c-1.7,0-3.1-0.4-4.1-1.3
			c-0.6-0.6-1-1-1-1.2c0-0.2,0.1-0.2,0.5-0.1c2.2,0.3,3.8,0.3,4.8,0.1c1.1-0.2,2.5-0.6,4.3-1.4c0.4-0.2,1.3-0.6,2.8-1.2
			c1.5-0.6,2.6-1.1,3.4-1.3c0.5-0.1,0.8-0.3,1-0.6c0.2-0.3,0.2-0.5,0.2-0.7c-0.1-0.2-0.2-0.4-0.4-0.5c-0.4-0.2-0.9-0.1-1.2,0.5
			c-0.2,0.4-0.6,0.7-1.3,1.1c-0.6,0.3-1.2,0.6-1.8,0.8c-0.5,0.2-1.2,0.4-2.1,0.6c-0.9,0.2-1.3,0.4-1.4,0.4c-2.2,0.7-4.3,1-6.2,0.9
			c-0.9,0-1.6-0.2-2.2-0.4c-0.5-0.2-0.9-0.5-1.1-0.8c-0.2-0.3-0.5-0.7-1-1.2c-0.4-0.5-1-0.9-1.5-1.2c-0.4-0.2-0.6-0.6-0.5-1.1
			c0.1-0.5,0.4-1.1,0.9-1.7c0,0,0.5-0.3,1.2-0.8c0.8-0.5,1.3-1,1.7-1.4c0.4-0.6,1-1.2,1.9-1.8c0-0.2,0.1-0.6,0.1-1.3
			c0-0.7-0.2-1.5-0.6-2.4c-0.4-0.9-1-1.3-1.6-1.3c-1,0-1.7,0.2-2.1,0.9c-0.4,0.6-0.6,1.4-0.5,2.3c0,0.8,0.2,1.5,0.6,2.1
			c0.3,0.6,0.7,0.9,0.9,0.9c0.4,0,0.6,0.1,0.4,0.5c-0.2,0.4-0.6,0.7-1,0.9c-0.3,0.1-0.6-0.2-0.9-0.8c-0.3-0.6-0.6-1.4-0.8-2.3
			c-0.2-0.9-0.3-1.7-0.2-2.3c0.1-1.3,0.4-2.5,1-3.7c0.6-1.2,1.4-1.7,2.5-1.7c1.1,0,2,0.7,2.7,2.1c0.7,1.3,1,3.2,1,5.5
			c0.1,0.3,0.4,0.4,0.9,0.3c0.5-0.1,1.2-0.1,2,0c0.8,0.1,1.4,0.3,1.8,0.6c0,0,0.1-0.3,0.1-0.9c-0.7-5.2,1.1-7.9,5.4-8.2
			c0.6,0.1,1.2,0.3,1.6,0.5c0.4,0.2,0.9,0.5,1.4,0.9c0.5,0.4,0.9,1.1,1.3,1.9c0.3,0.8,0.6,1.8,0.8,3.1c0,0.2,0,1,0,2.3
			c0,1.3-0.3,2-0.8,2.2c-0.8,0.3-1.5,0.3-1.8,0c-0.4-0.3-0.3-0.8,0.1-1.6c0.4-1,0.3-2.2-0.2-3.6c-0.6-1.3-1.6-2-3.1-1.8
			c-1,0-1.7,0.6-2.2,1.7c-0.4,1.1-0.6,2.1-0.5,3.1c0.1,1,0.3,1.6,0.7,1.6c0.2,0,1,0.4,2.2,1c1.2,0.6,2.1,1,2.7,1.1
			c1.6,0.3,2.5,0.8,2.7,1.5c0.2,0.7,0.1,1.7-0.3,3c-0.4,1.3-0.5,2.4-0.4,3.3c0.2,0.9,0.5,1.7,0.9,2.5c0.4,0.7,0.9,1.4,1.4,2
			c0.5,0.6,1.1,1.8,1.8,3.4c0.7,1.7,1.3,3.8,1.9,6.3c0,0,0.2,0.2,0.5,0.4c0.3,0.2,0.5,0.6,0.8,0.9c0.3,0.4,0.6,0.9,0.9,1.5
			c0.4,0.6,0.8,1.6,1.2,2.8c0.4,1.2,0.8,2.6,1.2,4.2c0.4,1.9,0.7,4.1,0.7,6.6c0,2.5,0.2,4.2,0.5,5.1c0.3,0.9,1.1,1.3,2.3,1.1
			c1.6-0.1,2.6-0.9,3-2.6c1.3-4.7,0.2-10.4-3.3-17.1c-1.3-2.6-2.5-4.3-3.5-5.1c1.4,0.8,2.9,2.4,4.4,4.6c1.5,2.3,2.5,4.4,2.9,6.3
			c0,0.2,0.2,0.7,0.3,1.6c0.2,0.9,0.3,1.4,0.3,1.5c0,0.1,0.1,0.6,0.2,1.3c0.1,0.7,0.2,1.1,0.2,1.3c0,0.2,0,0.6,0.1,1.2
			c0,0.6,0,1.1,0,1.4c-0.1,0.3-0.1,0.8-0.2,1.3c-0.1,0.6-0.2,1.1-0.3,1.6c-0.1,0.5-0.3,1.1-0.5,1.7c2.2,1,3.3,1.8,3.3,2.6
			c-0.9-0.7-2.1-1.2-3.6-1.4c-1.6-0.2-3,0-4.4,0.6c-1.4,0.7-2.1,1.7-2.1,3.3c-1.5,0-2.5,0.4-3.1,1.1c-0.9,1.1-1.4,2.5-1.4,4.3
			C69.8,84.1,70,86.1,70.3,88.2z M45.3,21.6c-0.1,0-0.2-0.2-0.3-0.4c0-0.4,0.2-0.5,0.5-0.4c0.2,0.1,0.5,0.4,0.7,0.9
			c0.2,0.5,0.3,1.1,0.2,1.8c0,0.1-0.1,0.2-0.2,0.2c-0.4,0-0.6-0.4-0.5-1.2C45.8,21.9,45.7,21.6,45.3,21.6z M61,22.6l-0.1,0.2
			c-0.3,0.2-0.5,0.2-0.5,0.1c-0.2-1.1-0.5-1.7-1.1-1.9c-0.1,0-0.2-0.1-0.2-0.1c-0.3-0.2-0.1-0.4,0.4-0.4c0.1,0,0.3,0,0.5,0.2
			c0.2,0.2,0.5,0.4,0.7,0.8C60.9,21.7,61,22.1,61,22.6z"/>
	</defs>
	<clipPath id="SVGID_8_">
		<use xlink:href="#SVGID_7_"  style="overflow:visible;"/>
	</clipPath>
	<linearGradient id="SVGID_9_" gradientUnits="userSpaceOnUse" x1="0" y1="110" x2="110" y2="-5.684342e-13">
		<stop  offset="0" style="stop-color:#1A9690"/>
		<stop  offset="1" style="stop-color:#247CB5"/>
	</linearGradient>
	<rect class="st2" width="110" height="110"/>
</g>
</svg>
