<?xml version="1.0" encoding="utf-8"?>
<!-- Generator: Adobe Illustrator 21.0.0, SVG Export Plug-In . SVG Version: 6.00 Build 0)  -->
<svg version="1.1" id="Layer_1" xmlns="http://www.w3.org/2000/svg" xmlns:xlink="http://www.w3.org/1999/xlink" x="0px" y="0px"
	 viewBox="0 0 600 600" style="enable-background:new 0 0 600 600;" xml:space="preserve">
<style type="text/css">
	.st0{fill:url(#SVGID_1_);}
	.st1{fill:#3D76BB;}
	.st2{fill:#FFFFFF;}
	.st3{opacity:0.2;}
	.st4{enable-background:new    ;}
	.st5{fill:#FFFFFF;enable-background:new    ;}
</style>
<g>
	<g>
		<g>
			
				<image style="overflow:visible;opacity:0.46;enable-background:new    ;" width="1888" height="1888" xlink:href="A6FD553B.png"  transform="matrix(0.2394 0 0 0.2394 74.1 86.22)">
			</image>
			<g>
				
					<linearGradient id="SVGID_1_" gradientUnits="userSpaceOnUse" x1="182.7617" y1="170.6617" x2="417.2383" y2="405.1383" gradientTransform="matrix(1 0 0 -1 0 600)">
					<stop  offset="0" style="stop-color:#2176AF"/>
					<stop  offset="1" style="stop-color:#6CB3E3"/>
				</linearGradient>
				<circle class="st0" cx="300" cy="312.1" r="165.8"/>
			</g>
		</g>
		<g>
			<path class="st1" d="M375.4,272.5H250.7l7-29c0.8-3.3,3.8-5.7,7.2-5.7h115.3c4.8,0,8.3,4.5,7.2,9.1l-4.8,19.9
				C381.7,270.2,378.8,272.5,375.4,272.5z"/>
			<polygon class="st1" points="310.2,302.9 299.4,292.2 225.2,324 236.1,334.9 296.3,334.9 			"/>
			<path class="st1" d="M299.7,334.9h-63.6l8.3-34.7h60c4.8,0,8.3,4.5,7.2,9.1l-4.8,19.9C306.1,332.5,303.1,334.9,299.7,334.9z"/>
			<path class="st2" d="M288.8,324h-63.6l8.3-34.7h60c4.8,0,8.3,4.5,7.2,9.1l-4.8,19.9C295.2,321.6,292.2,324,288.8,324z"/>
			<path class="st1" d="M354,397.4H230.4c-4.5,0-7.8-4.2-6.8-8.6l6.3-26.1H359c4.5,0,7.8,4.2,6.8,8.6l-5,20.8
				C360,395.2,357.2,397.4,354,397.4z"/>
			<polygon class="st1" points="364.4,365.2 353.4,354.3 214.1,384 225,394.7 338.9,389.6 360,385 			"/>
			<path class="st2" d="M343,386.4H219.4c-4.5,0-7.8-4.2-6.8-8.6l6.3-26.1H348c4.5,0,7.8,4.2,6.8,8.6l-5,20.8
				C349.1,384.2,346.3,386.4,343,386.4z"/>
			<polygon class="st1" points="385.6,240.2 375.3,230.1 239.7,261.5 250.7,272.5 373.2,272.5 			"/>
			<path class="st2" d="M364.4,261.5H239.7l7-29c0.8-3.3,3.8-5.7,7.2-5.7h115.3c4.8,0,8.3,4.5,7.2,9.1l-4.8,19.9
				C370.8,259.2,367.8,261.5,364.4,261.5z"/>
		</g>
	</g>
</g>
<g class="st3">
	<path d="M86.6,528.3H54.8l-3.5,15.9h33.6l-2.6,11.7H48.6l-3.8,17.2h31c1.7,0,3,1.6,2.6,3.3l-1.5,6.5c-0.3,1.5-1.6,2.5-3.1,2.5H33.3
		c-3.4,0-5.8-3.1-5.1-6.4l13.1-58.8c0.5-2.4,2.7-4.1,5.1-4.1h42.1c1.7,0,3,1.6,2.6,3.3l-1.4,6.5C89.4,527.3,88.1,528.3,86.6,528.3z"
		/>
	<path d="M130.4,546.6c-1.1,1.1-2.8,1.1-3.9,0.1l0,0c-0.8-0.7-1.7-1.2-2.8-1.7c-1-0.5-2.2-0.9-3.4-1.2c-1.2-0.3-2.5-0.5-3.8-0.5
		c-2.4,0-4.5,0.3-6.4,1s-3.1,1.9-3.4,3.6c-0.4,1.8,0.1,3.1,1.6,4s3.9,1.7,7.5,2.6c6.2,1.5,10.6,3.8,13.1,6.7
		c2.5,2.9,3.3,6.8,2.3,11.5c-1,4.6-3.6,8-7.9,10.4s-9.6,3.5-15.9,3.5c-2.7,0-5.2-0.3-7.5-0.8c-2.3-0.6-4.3-1.3-6.1-2.1
		c-1.8-0.9-3.4-1.8-4.7-2.9c-0.4-0.3-0.8-0.6-1.2-1c-1.3-1.1-1.3-3.1-0.1-4.2l3.9-3.8c1.1-1.1,2.9-1.1,4-0.1
		c0.1,0.1,0.2,0.2,0.3,0.3c0.9,0.8,2,1.6,3.2,2.3s2.5,1.3,4,1.7c1.5,0.5,2.9,0.7,4.4,0.7c2.8,0,5.2-0.5,7-1.4s2.9-2.3,3.3-4
		c0.3-1.7-0.3-3-1.9-4.1s-4.1-2-7.5-2.9c-5.7-1.4-9.8-3.5-12.3-6.3s-3.3-6.4-2.4-10.8c0.4-2.1,1.3-4,2.6-5.7c1.3-1.7,3-3.1,5-4.2
		c2-1.1,4.4-2,7-2.6s5.4-0.9,8.4-0.9c4.8,0,8.9,0.8,12.1,2.4c1.9,0.9,3.5,1.9,4.8,3s1.4,3.1,0.2,4.3L130.4,546.6z"/>
	<path d="M182.1,548.8c-1.3,1-3.3,0.9-4.4-0.3c-0.8-0.9-1.8-1.7-2.7-2.3c-1.7-1.1-3.8-1.6-6.2-1.6c-2,0-3.9,0.4-5.6,1.1
		c-1.7,0.8-3.2,1.8-4.6,3.2c-1.3,1.4-2.5,3-3.3,4.9c-0.9,1.9-1.4,4-1.7,6.3c-0.2,2.2-0.1,4.3,0.3,6.2c0.4,1.9,1.1,3.6,2.1,4.9
		c1,1.4,2.2,2.5,3.7,3.3s3.2,1.2,5.1,1.2c3.6,0,6.9-1.2,9.8-3.6c1.4-1.1,3.4-1.1,4.6,0.3l3.1,3.4c1.3,1.4,1.1,3.7-0.4,4.9
		c-2.2,1.7-4.5,3-6.8,3.9c-3.3,1.3-6.9,2-11,2c-3.9,0-7.5-0.7-10.7-2s-5.9-3.2-8-5.6c-2.2-2.4-3.8-5.2-4.8-8.4s-1.3-6.7-0.9-10.4
		c0.4-3.7,1.4-7.1,3-10.3s3.7-6,6.2-8.4c2.6-2.4,5.5-4.3,8.9-5.6c3.4-1.4,7-2.1,11-2.1c7.3,0,13.3,2.2,17.9,6.7
		c1.4,1.4,1.2,3.7-0.3,4.9L182.1,548.8z"/>
	<path d="M227.4,543.8c-0.3,1.5-1.7,2.5-3.2,2.5c-0.4,0-0.8,0-1.2,0c-1.5,0-3.1,0.2-4.7,0.6c-1.6,0.3-3.1,0.9-4.6,1.6
		c-1.5,0.7-2.8,1.6-3.9,2.7l-7,31.8c-0.3,1.4-1.6,2.5-3.1,2.5h-7.2c-2,0-3.5-1.9-3.1-3.8l9.7-43.8c0.3-1.4,1.6-2.5,3.1-2.5h7.3
		c2,0,3.5,1.9,3.1,3.9l-0.5,2.4c1.8-2,4.2-3.8,7.2-5.3c1.8-0.9,3.8-1.6,5.9-2c2.2-0.4,4.1,1.6,3.6,3.8L227.4,543.8z"/>
	<path d="M279,570.4c-1.6,3.2-3.6,6-6.1,8.4s-5.5,4.3-8.9,5.8c-3.4,1.4-7.1,2.1-11.2,2.1c-4.1,0-7.7-0.7-11-2.1
		c-3.2-1.4-5.9-3.3-8-5.8c-2.1-2.4-3.7-5.2-4.6-8.4c-1-3.2-1.2-6.6-0.8-10.2c0.4-3.6,1.4-7,3-10.2s3.6-6,6.1-8.4s5.5-4.3,8.8-5.8
		c3.4-1.4,7.1-2.1,11.2-2.1c4.1,0,7.7,0.7,11,2.1c3.2,1.4,5.9,3.3,8,5.8c2.1,2.4,3.7,5.2,4.7,8.4s1.3,6.6,0.9,10.2
		C281.5,563.9,280.6,567.3,279,570.4z M266,549c-1.9-2.9-4.9-4.4-8.9-4.4s-7.4,1.5-10.1,4.4c-2.7,2.9-4.3,6.7-4.9,11.3
		c-0.5,4.6,0.2,8.3,2.1,11.3c1.9,2.9,4.8,4.4,8.8,4.4c4,0,7.4-1.4,10.1-4.3c2.7-2.9,4.3-6.7,4.9-11.3
		C268.6,555.7,267.9,551.9,266,549z"/>
	<path d="M341.9,585.3H333c-1.8,0-3.4-1.4-3.6-3.2l-2.6-26.3c-0.1-1.1-1.6-1.4-2.1-0.4l-15.3,28.1c-0.6,1.2-1.8,1.9-3.1,1.9h-8.9
		c-1.9,0-3.4-1.4-3.6-3.3l-3.6-43c-0.2-2.1,1.5-3.9,3.6-3.9h6.5c1.9,0,3.5,1.5,3.6,3.4l1.1,27.3c0,1.2,1.6,1.5,2.1,0.5l16.1-29.4
		c0.6-1.1,1.8-1.9,3.1-1.9h6.2c1.8,0,3.4,1.4,3.6,3.2l2.9,27.6c0.1,1.1,1.7,1.4,2.2,0.4l14.3-29.2c0.6-1.2,1.8-2,3.2-2h6.1
		c2.7,0,4.4,2.9,3.2,5.3l-22.8,43C344.4,584.6,343.2,585.3,341.9,585.3z"/>
	<path class="st4" d="M434.1,534.7c-1.6,0.9-3.7,0.5-4.8-1c-1.2-1.7-2.7-3.2-4.5-4.4c-2.7-1.8-6-2.8-9.9-2.8c-3.1,0-6.1,0.6-8.9,1.8
		s-5.4,2.9-7.6,5s-4.1,4.7-5.6,7.7s-2.4,6.2-2.9,9.8c-0.4,3.6-0.2,6.9,0.5,9.9c0.8,3,2,5.5,3.7,7.6s3.8,3.8,6.3,4.9
		c2.5,1.2,5.4,1.8,8.6,1.8c3.7,0,7.2-0.9,10.4-2.8c2.4-1.4,4.5-3.1,6.3-5.2c1.1-1.3,3-1.5,4.4-0.6l5.6,3.6c1.8,1.2,2.1,3.7,0.6,5.3
		c-2.9,3-6.2,5.6-10.1,7.8c-5.1,2.9-11.1,4.3-18.1,4.3c-5.3,0-10.1-0.9-14.5-2.8c-4.4-1.9-8.1-4.4-11.1-7.7s-5.2-7.1-6.7-11.6
		s-1.9-9.3-1.3-14.5c0.6-5.3,2.1-10.2,4.5-14.7s5.4-8.4,9-11.6c3.7-3.3,7.9-5.8,12.6-7.6c4.7-1.8,9.8-2.8,15.1-2.8
		c6.8,0,12.5,1.5,17.1,4.4c3.3,2.1,6.1,4.5,8.3,7.4c1.4,1.8,0.9,4.4-1.1,5.5L434.1,534.7z"/>
	<path class="st4" d="M494.7,570.4c-1.6,3.2-3.6,6-6.1,8.4s-5.5,4.3-8.9,5.8c-3.4,1.4-7.1,2.1-11.2,2.1s-7.7-0.7-11-2.1
		c-3.2-1.4-5.9-3.3-8-5.8c-2.1-2.4-3.7-5.2-4.6-8.4c-1-3.2-1.2-6.6-0.8-10.2c0.4-3.6,1.4-7,3-10.2s3.6-6,6.1-8.4s5.5-4.3,8.8-5.8
		c3.4-1.4,7.1-2.1,11.2-2.1s7.7,0.7,11,2.1s5.9,3.3,8,5.8c2.1,2.4,3.7,5.2,4.7,8.4s1.3,6.6,0.9,10.2
		C497.2,563.9,496.2,567.3,494.7,570.4z M481.7,549c-1.9-2.9-4.9-4.4-8.9-4.4s-7.4,1.5-10.1,4.4s-4.3,6.7-4.9,11.3
		c-0.5,4.6,0.2,8.3,2.1,11.3s4.8,4.4,8.8,4.4s7.4-1.4,10.1-4.3c2.7-2.9,4.3-6.7,4.9-11.3C484.3,555.7,483.6,551.9,481.7,549z"/>
	<path class="st4" d="M511.9,585.3h-7c-2.1,0-3.7-1.9-3.2-4l9.7-43.6c0.3-1.5,1.7-2.6,3.2-2.6h7c2.1,0,3.7,1.9,3.2,4l-9.7,43.6
		C514.8,584.3,513.4,585.3,511.9,585.3z"/>
	<path class="st4" d="M529,524.2c-0.5,1-1.2,1.8-2,2.5s-1.7,1.3-2.8,1.7c-1,0.4-2.1,0.6-3.2,0.6c-2.2,0-4-0.8-5.4-2.3
		c-1.4-1.6-1.9-3.4-1.7-5.7c0.3-2.2,1.3-4.1,3-5.7c1.7-1.6,3.7-2.3,5.9-2.3c2.1,0,3.9,0.8,5.3,2.3c1.4,1.6,2,3.4,1.7,5.7
		C529.9,522.2,529.5,523.2,529,524.2z"/>
	<path class="st4" d="M581.5,551.7c-2.4,10.8-4.6,21.2-6.7,31.1c-0.3,1.5-1.7,2.6-3.2,2.6h-7.1c-2.1,0-3.6-1.9-3.2-4
		c0.9-4.3,1.8-7.9,2.5-11c0.9-3.9,1.6-7.1,2.1-9.4c0.5-2.4,1-4.5,1.4-6.3c0.8-3.3,0.6-5.7-0.6-7.3c-1.2-1.5-3.1-2.3-5.7-2.3
		c-2.7,0-5,0.6-7,1.7c-2,1.1-4,2.6-6,4.4l-7,31.7c-0.3,1.5-1.7,2.6-3.2,2.6h-7c-2.1,0-3.6-1.9-3.2-4l9.7-43.6
		c0.3-1.5,1.7-2.6,3.2-2.6h7.1c2.1,0,3.7,2,3.2,4l-0.5,2.1c1.8-1.9,4.1-3.6,6.9-5.2c2.8-1.6,6.2-2.4,10.2-2.4c2.7,0,5.1,0.5,7.2,1.3
		c2.1,0.9,3.7,2.1,5,3.7c1.2,1.6,2.1,3.5,2.4,5.7C582.1,546.8,582,549.1,581.5,551.7z"/>
</g>
<g>
	<path class="st2" d="M81.6,523.4H49.8l-3.5,15.9h33.6L77.3,551H43.6l-3.8,17.2h31c1.7,0,3,1.6,2.6,3.3l-1.5,6.5
		c-0.3,1.5-1.6,2.5-3.1,2.5H28.3c-3.4,0-5.8-3.1-5.1-6.4l13.1-58.8c0.5-2.4,2.7-4.1,5.1-4.1h42.1c1.7,0,3,1.6,2.6,3.3l-1.4,6.5
		C84.4,522.4,83.1,523.4,81.6,523.4z"/>
	<path class="st2" d="M125.4,541.7c-1.1,1.1-2.8,1.1-3.9,0.1l0,0c-0.8-0.7-1.7-1.2-2.8-1.7c-1-0.5-2.2-0.9-3.4-1.2
		c-1.2-0.3-2.5-0.5-3.8-0.5c-2.4,0-4.5,0.3-6.4,1s-3.1,1.9-3.4,3.6c-0.4,1.8,0.1,3.1,1.6,4s3.9,1.7,7.5,2.6
		c6.2,1.5,10.6,3.8,13.1,6.7s3.3,6.8,2.3,11.5c-1,4.6-3.6,8-7.9,10.4s-9.6,3.5-15.9,3.5c-2.7,0-5.2-0.3-7.5-0.8
		c-2.3-0.6-4.3-1.3-6.1-2.1c-1.8-0.9-3.4-1.8-4.7-2.9c-0.4-0.3-0.8-0.6-1.2-1c-1.3-1.1-1.3-3.1-0.1-4.2l3.9-3.8
		c1.1-1.1,2.9-1.1,4-0.1c0.1,0.1,0.2,0.2,0.3,0.3c0.9,0.8,2,1.6,3.2,2.3s2.5,1.3,4,1.7c1.5,0.5,2.9,0.7,4.4,0.7c2.8,0,5.2-0.5,7-1.4
		s2.9-2.3,3.3-4c0.3-1.7-0.3-3-1.9-4.1s-4.1-2-7.5-2.9c-5.7-1.4-9.8-3.5-12.3-6.3s-3.3-6.4-2.4-10.8c0.4-2.1,1.3-4,2.6-5.7
		c1.3-1.7,3-3.1,5-4.2c2-1.1,4.4-2,7-2.6s5.4-0.9,8.4-0.9c4.8,0,8.9,0.8,12.1,2.4c1.9,0.9,3.5,1.9,4.8,3s1.4,3.1,0.2,4.3
		L125.4,541.7z"/>
	<path class="st2" d="M177.1,543.9c-1.3,1-3.3,0.9-4.4-0.3c-0.8-0.9-1.8-1.7-2.7-2.3c-1.7-1.1-3.8-1.6-6.2-1.6c-2,0-3.9,0.4-5.6,1.1
		c-1.7,0.8-3.2,1.8-4.6,3.2c-1.3,1.4-2.5,3-3.3,4.9c-0.9,1.9-1.4,4-1.7,6.3c-0.2,2.2-0.1,4.3,0.3,6.2c0.4,1.9,1.1,3.6,2.1,4.9
		c1,1.4,2.2,2.5,3.7,3.3s3.2,1.2,5.1,1.2c3.6,0,6.9-1.2,9.8-3.6c1.4-1.1,3.4-1.1,4.6,0.3l3.1,3.4c1.3,1.4,1.1,3.7-0.4,4.9
		c-2.2,1.7-4.5,3-6.8,3.9c-3.3,1.3-6.9,2-11,2c-3.9,0-7.5-0.7-10.7-2s-5.9-3.2-8-5.6c-2.2-2.4-3.8-5.2-4.8-8.4s-1.3-6.7-0.9-10.4
		c0.4-3.7,1.4-7.1,3-10.3s3.7-6,6.2-8.4c2.6-2.4,5.5-4.3,8.9-5.6c3.4-1.4,7-2.1,11-2.1c7.3,0,13.3,2.2,17.9,6.7
		c1.4,1.4,1.2,3.7-0.3,4.9L177.1,543.9z"/>
	<path class="st2" d="M222.4,538.9c-0.3,1.5-1.7,2.5-3.2,2.5c-0.4,0-0.8,0-1.2,0c-1.5,0-3.1,0.2-4.7,0.6c-1.6,0.3-3.1,0.9-4.6,1.6
		c-1.5,0.7-2.8,1.6-3.9,2.7l-7,31.8c-0.3,1.4-1.6,2.5-3.1,2.5h-7.2c-2,0-3.5-1.9-3.1-3.8l9.7-43.8c0.3-1.4,1.6-2.5,3.1-2.5h7.3
		c2,0,3.5,1.9,3.1,3.9l-0.5,2.4c1.8-2,4.2-3.8,7.2-5.3c1.8-0.9,3.8-1.6,5.9-2c2.2-0.4,4.1,1.6,3.6,3.8L222.4,538.9z"/>
	<path class="st2" d="M274,565.5c-1.6,3.2-3.6,6-6.1,8.4s-5.5,4.3-8.9,5.8c-3.4,1.4-7.1,2.1-11.2,2.1c-4.1,0-7.7-0.7-11-2.1
		c-3.2-1.4-5.9-3.3-8-5.8c-2.1-2.4-3.7-5.2-4.6-8.4c-1-3.2-1.2-6.6-0.8-10.2c0.4-3.6,1.4-7,3-10.2s3.6-6,6.1-8.4s5.5-4.3,8.8-5.8
		c3.4-1.4,7.1-2.1,11.2-2.1c4.1,0,7.7,0.7,11,2.1c3.2,1.4,5.9,3.3,8,5.8c2.1,2.4,3.7,5.2,4.7,8.4s1.3,6.6,0.9,10.2
		C276.5,559,275.6,562.4,274,565.5z M261,544.1c-1.9-2.9-4.9-4.4-8.9-4.4s-7.4,1.5-10.1,4.4c-2.7,2.9-4.3,6.7-4.9,11.3
		c-0.5,4.6,0.2,8.3,2.1,11.3c1.9,2.9,4.8,4.4,8.8,4.4s7.4-1.4,10.1-4.3c2.7-2.9,4.3-6.7,4.9-11.3C263.6,550.8,262.9,547,261,544.1z"
		/>
	<path class="st2" d="M336.9,580.4H328c-1.8,0-3.4-1.4-3.6-3.2l-2.6-26.3c-0.1-1.1-1.6-1.4-2.1-0.4l-15.3,28.1
		c-0.6,1.2-1.8,1.9-3.1,1.9h-8.9c-1.9,0-3.4-1.4-3.6-3.3l-3.6-43c-0.2-2.1,1.5-3.9,3.6-3.9h6.5c1.9,0,3.5,1.5,3.6,3.4L300,561
		c0,1.2,1.6,1.5,2.1,0.5l16.1-29.4c0.6-1.1,1.8-1.9,3.1-1.9h6.2c1.8,0,3.4,1.4,3.6,3.2L334,561c0.1,1.1,1.7,1.4,2.2,0.4l14.3-29.2
		c0.6-1.2,1.8-2,3.2-2h6.1c2.7,0,4.4,2.9,3.2,5.3l-22.8,43C339.4,579.7,338.2,580.4,336.9,580.4z"/>
	<path class="st5" d="M429.1,529.8c-1.6,0.9-3.7,0.5-4.8-1c-1.2-1.7-2.7-3.2-4.5-4.4c-2.7-1.8-6-2.8-9.9-2.8c-3.1,0-6.1,0.6-8.9,1.8
		s-5.4,2.9-7.6,5s-4.1,4.7-5.6,7.7s-2.4,6.2-2.9,9.8c-0.4,3.6-0.2,6.9,0.5,9.9c0.8,3,2,5.5,3.7,7.6s3.8,3.8,6.3,4.9
		c2.5,1.2,5.4,1.8,8.6,1.8c3.7,0,7.2-0.9,10.4-2.8c2.4-1.4,4.5-3.1,6.3-5.2c1.1-1.3,3-1.5,4.4-0.6l5.6,3.6c1.8,1.2,2.1,3.7,0.6,5.3
		c-2.9,3-6.2,5.6-10.1,7.8c-5.1,2.9-11.1,4.3-18.1,4.3c-5.3,0-10.1-0.9-14.5-2.8c-4.4-1.9-8.1-4.4-11.1-7.7s-5.2-7.1-6.7-11.6
		s-1.9-9.3-1.3-14.5c0.6-5.3,2.1-10.2,4.5-14.7s5.4-8.4,9-11.6c3.7-3.3,7.9-5.8,12.6-7.6c4.7-1.8,9.8-2.8,15.1-2.8
		c6.8,0,12.5,1.5,17.1,4.4c3.3,2.1,6.1,4.5,8.3,7.4c1.4,1.8,0.9,4.4-1.1,5.5L429.1,529.8z"/>
	<path class="st5" d="M489.7,565.5c-1.6,3.2-3.6,6-6.1,8.4s-5.5,4.3-8.9,5.8c-3.4,1.4-7.1,2.1-11.2,2.1s-7.7-0.7-11-2.1
		c-3.2-1.4-5.9-3.3-8-5.8c-2.1-2.4-3.7-5.2-4.6-8.4c-1-3.2-1.2-6.6-0.8-10.2c0.4-3.6,1.4-7,3-10.2s3.6-6,6.1-8.4s5.5-4.3,8.8-5.8
		c3.4-1.4,7.1-2.1,11.2-2.1s7.7,0.7,11,2.1s5.9,3.3,8,5.8c2.1,2.4,3.7,5.2,4.7,8.4s1.3,6.6,0.9,10.2
		C492.2,559,491.2,562.4,489.7,565.5z M476.7,544.1c-1.9-2.9-4.9-4.4-8.9-4.4s-7.4,1.5-10.1,4.4s-4.3,6.7-4.9,11.3
		c-0.5,4.6,0.2,8.3,2.1,11.3s4.8,4.4,8.8,4.4s7.4-1.4,10.1-4.3c2.7-2.9,4.3-6.7,4.9-11.3C479.3,550.8,478.6,547,476.7,544.1z"/>
	<path class="st5" d="M506.9,580.4h-7c-2.1,0-3.7-1.9-3.2-4l9.7-43.6c0.3-1.5,1.7-2.6,3.2-2.6h7c2.1,0,3.7,1.9,3.2,4l-9.7,43.6
		C509.8,579.4,508.4,580.4,506.9,580.4z"/>
	<path class="st5" d="M524,519.3c-0.5,1-1.2,1.8-2,2.5s-1.7,1.3-2.8,1.7c-1,0.4-2.1,0.6-3.2,0.6c-2.2,0-4-0.8-5.4-2.3
		c-1.4-1.6-1.9-3.4-1.7-5.7c0.3-2.2,1.3-4.1,3-5.7c1.7-1.6,3.7-2.3,5.9-2.3c2.1,0,3.9,0.8,5.3,2.3c1.4,1.6,2,3.4,1.7,5.7
		C524.9,517.3,524.5,518.3,524,519.3z"/>
	<path class="st5" d="M576.5,546.8c-2.4,10.8-4.6,21.2-6.7,31.1c-0.3,1.5-1.7,2.6-3.2,2.6h-7.1c-2.1,0-3.6-1.9-3.2-4
		c0.9-4.3,1.8-7.9,2.5-11c0.9-3.9,1.6-7.1,2.1-9.4c0.5-2.4,1-4.5,1.4-6.3c0.8-3.3,0.6-5.7-0.6-7.3c-1.2-1.5-3.1-2.3-5.7-2.3
		c-2.7,0-5,0.6-7,1.7c-2,1.1-4,2.6-6,4.4l-7,31.7c-0.3,1.5-1.7,2.6-3.2,2.6h-7c-2.1,0-3.6-1.9-3.2-4l9.7-43.6
		c0.3-1.5,1.7-2.6,3.2-2.6h7.1c2.1,0,3.7,2,3.2,4l-0.5,2.1c1.8-1.9,4.1-3.6,6.9-5.2c2.8-1.6,6.2-2.4,10.2-2.4c2.7,0,5.1,0.5,7.2,1.3
		c2.1,0.9,3.7,2.1,5,3.7c1.2,1.6,2.1,3.5,2.4,5.7C577.1,541.9,577,544.2,576.5,546.8z"/>
</g>
</svg>
