<?xml version="1.0" encoding="utf-8"?>
<!-- Generator: Adobe Illustrator 21.0.0, SVG Export Plug-In . SVG Version: 6.00 Build 0)  -->
<svg version="1.1" id="Layer_1" xmlns="http://www.w3.org/2000/svg" xmlns:xlink="http://www.w3.org/1999/xlink" x="0px" y="0px"
	 viewBox="0 0 110 110" style="enable-background:new 0 0 110 110;" xml:space="preserve">
<style type="text/css">
	.st0{fill:#7E7EE8;}
	.st1{fill:#4B4BBC;}
</style>
<g>
	<path class="st0" d="M55,0C24.6,0,0,24.6,0,55s24.6,55,55,55c6.8,0,13.2-1.2,19.2-3.5l-3-10.3c-5,2-10.5,3.1-16.3,3.1
		c-24.5,0-44.4-19.9-44.4-44.4S30.5,10.6,55,10.6S99.4,30.5,99.4,55c0,11.3-4.2,21.6-11.1,29.4c-3,3.4-6.6,6.4-10.5,8.7l3,10.5
		c3.9-2,7.5-4.6,10.8-7.5C102.8,86.1,110,71.4,110,55C110,24.6,85.4,0,55,0z"/>
	<polygon class="st0" points="62.2,75.8 50.7,34.9 37.2,34.8 48.6,75.7 	"/>
	<polygon class="st0" points="85.8,75.8 74.4,34.9 60.9,34.8 72.3,75.7 	"/>
	<polygon class="st1" points="50.5,34.9 38.7,75.7 25.2,75.7 37,34.9 	"/>
	<polygon class="st1" points="74.2,34.9 62.4,75.7 48.8,75.7 60.6,34.9 	"/>
	<path class="st0" d="M91.5,96.1c-3.4,3-7.2,5.7-11.3,7.8l-2.9-10.5L72.1,75l13.5,0.1l2.6,9.3L91.5,96.1z"/>
</g>
</svg>
