<?xml version="1.0" encoding="utf-8"?>
<!-- Generator: Adobe Illustrator 21.0.0, SVG Export Plug-In . SVG Version: 6.00 Build 0)  -->
<svg version="1.1" id="Layer_1" xmlns="http://www.w3.org/2000/svg" xmlns:xlink="http://www.w3.org/1999/xlink" x="0px" y="0px"
	 viewBox="0 0 110 110" style="enable-background:new 0 0 110 110;" xml:space="preserve">
<style type="text/css">
	.st0{clip-path:url(#SVGID_2_);fill:url(#SVGID_3_);}
	.st1{clip-path:url(#SVGID_5_);fill:url(#SVGID_6_);}
	.st2{clip-path:url(#SVGID_8_);fill:url(#SVGID_9_);}
	.st3{clip-path:url(#SVGID_11_);fill:url(#SVGID_12_);}
	.st4{clip-path:url(#SVGID_14_);fill:url(#SVGID_15_);}
	.st5{clip-path:url(#SVGID_17_);fill:url(#SVGID_18_);}
	.st6{clip-path:url(#SVGID_20_);fill:url(#SVGID_21_);}
	.st7{clip-path:url(#SVGID_23_);fill:url(#SVGID_24_);}
	.st8{clip-path:url(#SVGID_26_);fill:url(#SVGID_27_);}
	.st9{clip-path:url(#SVGID_29_);fill:url(#SVGID_30_);}
	.st10{clip-path:url(#SVGID_32_);fill:url(#SVGID_33_);}
	.st11{clip-path:url(#SVGID_35_);fill:url(#SVGID_36_);}
	.st12{clip-path:url(#SVGID_38_);fill:url(#SVGID_39_);}
	.st13{clip-path:url(#SVGID_41_);fill:url(#SVGID_42_);}
</style>
<g>
	<defs>
		<path id="SVGID_1_" d="M5.5,52.5C6.3,52.5,7,53.2,7,54v11c0,0.8-0.7,1.5-1.5,1.5C4.7,66.5,4,65.8,4,65V54
			C4,53.2,4.7,52.5,5.5,52.5z"/>
	</defs>
	<clipPath id="SVGID_2_">
		<use xlink:href="#SVGID_1_"  style="overflow:visible;"/>
	</clipPath>
	<linearGradient id="SVGID_3_" gradientUnits="userSpaceOnUse" x1="0" y1="110" x2="110" y2="-5.684342e-13">
		<stop  offset="0" style="stop-color:#1A9690"/>
		<stop  offset="1" style="stop-color:#247CB5"/>
	</linearGradient>
	<rect class="st0" width="110" height="110"/>
</g>
<g>
	<defs>
		<path id="SVGID_4_" d="M5.5,68.5C6.3,68.5,7,69.2,7,70s-0.7,1.5-1.5,1.5C4.7,71.5,4,70.8,4,70S4.7,68.5,5.5,68.5z"/>
	</defs>
	<clipPath id="SVGID_5_">
		<use xlink:href="#SVGID_4_"  style="overflow:visible;"/>
	</clipPath>
	<linearGradient id="SVGID_6_" gradientUnits="userSpaceOnUse" x1="0" y1="110" x2="110" y2="-5.684342e-13">
		<stop  offset="0" style="stop-color:#1A9690"/>
		<stop  offset="1" style="stop-color:#247CB5"/>
	</linearGradient>
	<rect class="st1" width="110" height="110"/>
</g>
<g>
	<defs>
		<path id="SVGID_7_" d="M18.5,85.5c0.8,0,1.5,0.7,1.5,1.5v8c0,0.8-0.7,1.5-1.5,1.5c-0.8,0-1.5-0.7-1.5-1.5v-8
			C17,86.2,17.7,85.5,18.5,85.5z"/>
	</defs>
	<clipPath id="SVGID_8_">
		<use xlink:href="#SVGID_7_"  style="overflow:visible;"/>
	</clipPath>
	<linearGradient id="SVGID_9_" gradientUnits="userSpaceOnUse" x1="0" y1="110" x2="110" y2="-5.684342e-13">
		<stop  offset="0" style="stop-color:#1A9690"/>
		<stop  offset="1" style="stop-color:#247CB5"/>
	</linearGradient>
	<rect class="st2" width="110" height="110"/>
</g>
<g>
	<defs>
		<path id="SVGID_10_" d="M42.5,67.5c0.8,0,1.5,0.7,1.5,1.5v12c0,0.8-0.7,1.5-1.5,1.5c-0.8,0-1.5-0.7-1.5-1.5V69
			C41,68.2,41.7,67.5,42.5,67.5z"/>
	</defs>
	<clipPath id="SVGID_11_">
		<use xlink:href="#SVGID_10_"  style="overflow:visible;"/>
	</clipPath>
	<linearGradient id="SVGID_12_" gradientUnits="userSpaceOnUse" x1="0" y1="110" x2="110" y2="-5.684342e-13">
		<stop  offset="0" style="stop-color:#1A9690"/>
		<stop  offset="1" style="stop-color:#247CB5"/>
	</linearGradient>
	<rect class="st3" width="110" height="110"/>
</g>
<g>
	<defs>
		<path id="SVGID_13_" d="M42.5,84.5c0.8,0,1.5,0.7,1.5,1.5c0,0.8-0.7,1.5-1.5,1.5c-0.8,0-1.5-0.7-1.5-1.5
			C41,85.2,41.7,84.5,42.5,84.5z"/>
	</defs>
	<clipPath id="SVGID_14_">
		<use xlink:href="#SVGID_13_"  style="overflow:visible;"/>
	</clipPath>
	<linearGradient id="SVGID_15_" gradientUnits="userSpaceOnUse" x1="0" y1="110" x2="110" y2="-5.684342e-13">
		<stop  offset="0" style="stop-color:#1A9690"/>
		<stop  offset="1" style="stop-color:#247CB5"/>
	</linearGradient>
	<rect class="st4" width="110" height="110"/>
</g>
<g>
	<defs>
		<path id="SVGID_16_" d="M62.5,74.5c0.8,0,1.5,0.7,1.5,1.5v5c0,0.8-0.7,1.5-1.5,1.5S61,81.8,61,81v-5C61,75.2,61.7,74.5,62.5,74.5z
			"/>
	</defs>
	<clipPath id="SVGID_17_">
		<use xlink:href="#SVGID_16_"  style="overflow:visible;"/>
	</clipPath>
	<linearGradient id="SVGID_18_" gradientUnits="userSpaceOnUse" x1="0" y1="110" x2="110" y2="-5.684342e-13">
		<stop  offset="0" style="stop-color:#1A9690"/>
		<stop  offset="1" style="stop-color:#247CB5"/>
	</linearGradient>
	<rect class="st5" width="110" height="110"/>
</g>
<g>
	<defs>
		<path id="SVGID_19_" d="M82.5,76.5c0.8,0,1.5,0.7,1.5,1.5v12c0,0.8-0.7,1.5-1.5,1.5c-0.8,0-1.5-0.7-1.5-1.5V78
			C81,77.2,81.7,76.5,82.5,76.5z"/>
	</defs>
	<clipPath id="SVGID_20_">
		<use xlink:href="#SVGID_19_"  style="overflow:visible;"/>
	</clipPath>
	<linearGradient id="SVGID_21_" gradientUnits="userSpaceOnUse" x1="0" y1="110" x2="110" y2="-5.684342e-13">
		<stop  offset="0" style="stop-color:#1A9690"/>
		<stop  offset="1" style="stop-color:#247CB5"/>
	</linearGradient>
	<rect class="st6" width="110" height="110"/>
</g>
<g>
	<defs>
		<path id="SVGID_22_" d="M82.5,94.5c0.8,0,1.5,0.7,1.5,1.5s-0.7,1.5-1.5,1.5c-0.8,0-1.5-0.7-1.5-1.5S81.7,94.5,82.5,94.5z"/>
	</defs>
	<clipPath id="SVGID_23_">
		<use xlink:href="#SVGID_22_"  style="overflow:visible;"/>
	</clipPath>
	<linearGradient id="SVGID_24_" gradientUnits="userSpaceOnUse" x1="0" y1="110" x2="110" y2="-5.684342e-13">
		<stop  offset="0" style="stop-color:#1A9690"/>
		<stop  offset="1" style="stop-color:#247CB5"/>
	</linearGradient>
	<rect class="st7" width="110" height="110"/>
</g>
<g>
	<defs>
		<path id="SVGID_25_" d="M91.5,63.5c0.8,0,1.5,0.7,1.5,1.5v6c0,0.8-0.7,1.5-1.5,1.5c-0.8,0-1.5-0.7-1.5-1.5v-6
			C90,64.2,90.7,63.5,91.5,63.5z"/>
	</defs>
	<clipPath id="SVGID_26_">
		<use xlink:href="#SVGID_25_"  style="overflow:visible;"/>
	</clipPath>
	<linearGradient id="SVGID_27_" gradientUnits="userSpaceOnUse" x1="0" y1="110" x2="110" y2="-5.684342e-13">
		<stop  offset="0" style="stop-color:#1A9690"/>
		<stop  offset="1" style="stop-color:#247CB5"/>
	</linearGradient>
	<rect class="st8" width="110" height="110"/>
</g>
<g>
	<defs>
		<path id="SVGID_28_" d="M107.5,52.5c0.8,0,1.5,0.7,1.5,1.5v22c0,0.8-0.7,1.5-1.5,1.5S106,76.8,106,76V54
			C106,53.2,106.7,52.5,107.5,52.5z"/>
	</defs>
	<clipPath id="SVGID_29_">
		<use xlink:href="#SVGID_28_"  style="overflow:visible;"/>
	</clipPath>
	<linearGradient id="SVGID_30_" gradientUnits="userSpaceOnUse" x1="0" y1="110" x2="110" y2="-5.684342e-13">
		<stop  offset="0" style="stop-color:#1A9690"/>
		<stop  offset="1" style="stop-color:#247CB5"/>
	</linearGradient>
	<rect class="st9" width="110" height="110"/>
</g>
<g>
	<defs>
		<path id="SVGID_31_" d="M102.7,34.5v3.7c0,4-3.3,7.3-7.3,7.3h-1.8v1.8c0,4-3.3,7.3-7.3,7.3H70.2c-4.1,3.4-9.4,5.5-15.2,5.5
			c-5.8,0-11.1-2.1-15.2-5.5H25.7c-5.1,0-9.2-4.1-9.2-9.1c-5.1,0-9.2-4.1-9.2-9.1v-2c-4.2-0.8-7.3-4.5-7.3-9v-3.7
			c0-1,0.8-1.8,1.8-1.8h36c4.3-4.5,10.4-7.3,17.2-7.3c6.8,0,12.9,2.8,17.2,7.3h36c1,0,1.8,0.8,1.8,1.8v5.5
			C110,31.2,106.7,34.5,102.7,34.5z M86.2,50.9c2,0,3.7-1.6,3.7-3.7v-1.8H77c-0.8,2-1.9,3.8-3.2,5.5H86.2z M25.7,50.9h10.6
			c-1.3-1.7-2.4-3.5-3.2-5.5H20.2C20.2,48.5,22.6,50.9,25.7,50.9z M3.7,23.5v1.8c0,3,2.5,5.5,5.5,5.5h14.7v3.7H11v1.8
			c0,3,2.5,5.5,5.5,5.5h15.3c-0.4-1.8-0.6-3.6-0.6-5.5c0-4.7,1.4-9.1,3.8-12.8H3.7z M55,16.2c-11.1,0-20.2,9-20.2,20.1
			c0,11.1,9,20.1,20.2,20.1s20.2-9,20.2-20.1C75.2,25.2,66.1,16.2,55,16.2z M106.3,23.5H75.1c2.4,3.7,3.8,8.1,3.8,12.8
			c0,1.9-0.2,3.7-0.6,5.5h17.1c2,0,3.7-1.6,3.7-3.7v-3.7H86.2v-3.7h16.5c2,0,3.7-1.6,3.7-3.7V23.5z"/>
	</defs>
	<clipPath id="SVGID_32_">
		<use xlink:href="#SVGID_31_"  style="overflow:visible;"/>
	</clipPath>
	<linearGradient id="SVGID_33_" gradientUnits="userSpaceOnUse" x1="0" y1="110" x2="110" y2="-5.684342e-13">
		<stop  offset="0" style="stop-color:#1A9690"/>
		<stop  offset="1" style="stop-color:#247CB5"/>
	</linearGradient>
	<rect class="st10" width="110" height="110"/>
</g>
<g>
	<defs>
		<path id="SVGID_34_" d="M43,41.3h2.6v-3.8h0.6c0.8,0,1.5-0.1,2-0.3c0.5-0.2,0.9-0.4,1.2-0.7c0.3-0.3,0.5-0.7,0.6-1.1
			C50,35,50,34.5,50,34c0-0.7-0.1-1.2-0.3-1.6c-0.2-0.4-0.4-0.8-0.8-1c-0.3-0.2-0.8-0.4-1.3-0.5c-0.5-0.1-1.1-0.1-1.7-0.1h-3V41.3z
			 M45.6,35.4v-2.5h0.8c0.2,0,0.3,0,0.4,0c0.1,0,0.2,0.1,0.3,0.2c0.1,0.1,0.2,0.2,0.2,0.4c0,0.2,0.1,0.4,0.1,0.7
			c0,0.5-0.1,0.8-0.3,1c-0.2,0.2-0.5,0.2-0.9,0.2H45.6z"/>
	</defs>
	<clipPath id="SVGID_35_">
		<use xlink:href="#SVGID_34_"  style="overflow:visible;"/>
	</clipPath>
	<linearGradient id="SVGID_36_" gradientUnits="userSpaceOnUse" x1="0" y1="110" x2="110" y2="-5.684342e-13">
		<stop  offset="0" style="stop-color:#1A9690"/>
		<stop  offset="1" style="stop-color:#247CB5"/>
	</linearGradient>
	<rect class="st11" width="110" height="110"/>
</g>
<g>
	<defs>
		<path id="SVGID_37_" d="M57.4,41.2c0.5-0.2,1-0.5,1.3-1c0.4-0.4,0.6-1,0.8-1.7c0.2-0.7,0.3-1.5,0.3-2.5c0-1-0.1-1.8-0.3-2.5
			c-0.2-0.7-0.4-1.3-0.8-1.7c-0.3-0.4-0.8-0.8-1.3-1c-0.5-0.2-1.1-0.3-1.8-0.3c-0.7,0-1.3,0.1-1.8,0.3c-0.5,0.2-1,0.5-1.3,1
			c-0.4,0.4-0.6,1-0.8,1.7c-0.2,0.7-0.3,1.5-0.3,2.5c0,1,0.1,1.8,0.3,2.5c0.2,0.7,0.4,1.3,0.8,1.7c0.4,0.4,0.8,0.8,1.3,1
			c0.5,0.2,1.1,0.3,1.8,0.3C56.2,41.5,56.8,41.4,57.4,41.2z M54.8,39.2c-0.2-0.1-0.3-0.3-0.4-0.5c-0.1-0.3-0.2-0.6-0.2-1
			c0-0.4-0.1-1-0.1-1.7c0-0.7,0-1.2,0.1-1.6c0-0.4,0.1-0.8,0.2-1c0.1-0.2,0.2-0.4,0.4-0.5c0.2-0.1,0.4-0.1,0.7-0.1
			c0.3,0,0.5,0,0.7,0.1c0.2,0.1,0.3,0.3,0.4,0.5c0.1,0.2,0.2,0.6,0.2,1c0,0.4,0.1,1,0.1,1.6c0,0.7,0,1.2-0.1,1.7
			c0,0.4-0.1,0.8-0.2,1c-0.1,0.3-0.2,0.4-0.4,0.5c-0.2,0.1-0.4,0.2-0.7,0.2C55.2,39.3,55,39.3,54.8,39.2z"/>
	</defs>
	<clipPath id="SVGID_38_">
		<use xlink:href="#SVGID_37_"  style="overflow:visible;"/>
	</clipPath>
	<linearGradient id="SVGID_39_" gradientUnits="userSpaceOnUse" x1="0" y1="110" x2="110" y2="-5.684342e-13">
		<stop  offset="0" style="stop-color:#1A9690"/>
		<stop  offset="1" style="stop-color:#247CB5"/>
	</linearGradient>
	<rect class="st12" width="110" height="110"/>
</g>
<g>
	<defs>
		<path id="SVGID_40_" d="M66,41.3c0.5-0.2,0.9-0.4,1.2-0.7c0.3-0.3,0.5-0.7,0.6-1.1C67.9,39,68,38.5,68,38c0-0.6-0.1-1.1-0.3-1.5
			c-0.2-0.4-0.4-0.7-0.7-1c-0.3-0.2-0.6-0.4-1-0.6c-0.4-0.1-0.8-0.3-1.2-0.4c-0.4-0.1-0.7-0.2-0.8-0.4c-0.1-0.1-0.2-0.4-0.2-0.6
			c0-0.2,0.1-0.4,0.2-0.6s0.4-0.2,0.8-0.2c0.4,0,0.7,0,0.9,0.1c0.3,0.1,0.6,0.2,0.9,0.4l0.9-2c-0.4-0.2-0.8-0.4-1.3-0.5
			c-0.4-0.1-1-0.2-1.7-0.2c-0.5,0-0.9,0.1-1.4,0.2c-0.4,0.1-0.8,0.3-1.1,0.6c-0.3,0.3-0.5,0.6-0.7,1c-0.2,0.4-0.3,0.9-0.3,1.5
			c0,0.6,0.1,1,0.2,1.4c0.1,0.4,0.3,0.7,0.6,0.9c0.3,0.3,0.6,0.5,0.9,0.6c0.4,0.2,0.8,0.3,1.2,0.4c0.4,0.1,0.7,0.2,0.9,0.4
			c0.2,0.1,0.3,0.4,0.3,0.7S65.2,38.8,65,39c-0.2,0.2-0.5,0.3-1,0.3c-0.4,0-0.8-0.1-1.2-0.2c-0.4-0.1-0.8-0.3-1.1-0.6l-0.8,2.1
			c0.2,0.1,0.4,0.2,0.6,0.3c0.2,0.1,0.5,0.2,0.8,0.3c0.3,0.1,0.6,0.2,0.9,0.2c0.3,0.1,0.7,0.1,1,0.1C64.9,41.5,65.5,41.4,66,41.3z"
			/>
	</defs>
	<clipPath id="SVGID_41_">
		<use xlink:href="#SVGID_40_"  style="overflow:visible;"/>
	</clipPath>
	<linearGradient id="SVGID_42_" gradientUnits="userSpaceOnUse" x1="0" y1="110" x2="110" y2="-5.684342e-13">
		<stop  offset="0" style="stop-color:#1A9690"/>
		<stop  offset="1" style="stop-color:#247CB5"/>
	</linearGradient>
	<rect class="st13" width="110" height="110"/>
</g>
</svg>
