<?xml version="1.0" encoding="utf-8"?>
<!-- Generator: Adobe Illustrator 21.0.0, SVG Export Plug-In . SVG Version: 6.00 Build 0)  -->
<svg version="1.1" id="Layer_1" xmlns="http://www.w3.org/2000/svg" xmlns:xlink="http://www.w3.org/1999/xlink" x="0px" y="0px"
	 viewBox="0 0 110 110" style="enable-background:new 0 0 110 110;" xml:space="preserve">
<style type="text/css">
	.st0{clip-path:url(#SVGID_2_);fill:url(#SVGID_3_);}
	.st1{clip-path:url(#SVGID_5_);fill:url(#SVGID_6_);}
</style>
<g>
	<g>
		<defs>
			<path id="SVGID_1_" d="M55,0C38.7,0,24.1,7.1,14,18.3C5.3,28.1,0,40.9,0,55c0,30.4,24.6,55,55,55c28.9,0,52.6-22.3,54.8-50.6
				c0.1-1.4,0.2-2.9,0.2-4.4C110,24.6,85.4,0,55,0z M55,106.3c-28.3,0-51.3-23-51.3-51.3c0-13.1,4.9-25.1,13.1-34.2
				C26.2,10.3,39.8,3.7,55,3.7c28.3,0,51.3,23,51.3,51.3c0,1.7-0.1,3.4-0.2,5C103.5,86,81.6,106.3,55,106.3z"/>
		</defs>
		<clipPath id="SVGID_2_">
			<use xlink:href="#SVGID_1_"  style="overflow:visible;"/>
		</clipPath>
		
			<linearGradient id="SVGID_3_" gradientUnits="userSpaceOnUse" x1="-9.094947e-13" y1="14" x2="110" y2="-96" gradientTransform="matrix(1 0 0 1 0 96)">
			<stop  offset="0" style="stop-color:#1B9691"/>
			<stop  offset="1" style="stop-color:#277DB6"/>
		</linearGradient>
		<rect class="st0" width="110" height="110"/>
	</g>
</g>
<g>
	<g>
		<defs>
			<path id="SVGID_4_" d="M92.6,58.7c0.1-1.2,0.2-2.4,0.2-3.7c0-20.1-15.8-36.5-35.7-37.5c-1,0-1.8,0.7-1.8,1.7c0,19.1,0,35.9,0,38
				c0,9,0,33,0,33c0,1.7,1.2,2.4,2.1,2.3C77.2,90.8,90.8,77.5,92.6,58.7z"/>
		</defs>
		<clipPath id="SVGID_5_">
			<use xlink:href="#SVGID_4_"  style="overflow:visible;"/>
		</clipPath>
		
			<linearGradient id="SVGID_6_" gradientUnits="userSpaceOnUse" x1="-9.094947e-13" y1="14" x2="110" y2="-96" gradientTransform="matrix(1 0 0 1 0 96)">
			<stop  offset="0" style="stop-color:#1B9691"/>
			<stop  offset="1" style="stop-color:#277DB6"/>
		</linearGradient>
		<rect class="st1" width="110" height="110"/>
	</g>
</g>
</svg>
